<?xml version="1.0" encoding="UTF-8"?>
<!DOCTYPE svg PUBLIC "-//W3C//DTD SVG 1.1//EN" "http://www.w3.org/Graphics/SVG/1.1/DTD/svg11.dtd">
<svg xmlns="http://www.w3.org/2000/svg" version="1.1" width="1024px" height="1024px" style="shape-rendering:geometricPrecision; text-rendering:geometricPrecision; image-rendering:optimizeQuality; fill-rule:evenodd; clip-rule:evenodd" xmlns:xlink="http://www.w3.org/1999/xlink">
<g><path style="opacity:0.021" fill="#43443f" d="M -0.5,-0.5 C 0.166667,-0.5 0.833333,-0.5 1.5,-0.5C 1.16667,0.5 0.5,1.16667 -0.5,1.5C -0.5,0.833333 -0.5,0.166667 -0.5,-0.5 Z"/></g>
<g><path style="opacity:0.022" fill="#43443f" d="M 16.5,-0.5 C 18.1667,-0.5 19.8333,-0.5 21.5,-0.5C 14.5,7.16667 7.16667,14.5 -0.5,21.5C -0.5,19.8333 -0.5,18.1667 -0.5,16.5C 5.5,11.1667 11.1667,5.5 16.5,-0.5 Z"/></g>
<g><path style="opacity:0.022" fill="#43443f" d="M 36.5,-0.5 C 38.1667,-0.5 39.8333,-0.5 41.5,-0.5C 27.8333,13.8333 13.8333,27.8333 -0.5,41.5C -0.5,39.8333 -0.5,38.1667 -0.5,36.5C 12.1667,24.5 24.5,12.1667 36.5,-0.5 Z"/></g>
<g><path style="opacity:0.022" fill="#43443f" d="M 56.5,-0.5 C 58.1667,-0.5 59.8333,-0.5 61.5,-0.5C 41.1667,20.5 20.5,41.1667 -0.5,61.5C -0.5,59.8333 -0.5,58.1667 -0.5,56.5C 18.8333,37.8333 37.8333,18.8333 56.5,-0.5 Z"/></g>
<g><path style="opacity:0.022" fill="#43443f" d="M 76.5,-0.5 C 78.1667,-0.5 79.8333,-0.5 81.5,-0.5C 54.5,27.1667 27.1667,54.5 -0.5,81.5C -0.5,79.8333 -0.5,78.1667 -0.5,76.5C 25.5,51.1667 51.1667,25.5 76.5,-0.5 Z"/></g>
<g><path style="opacity:0.022" fill="#43443f" d="M 96.5,-0.5 C 98.1667,-0.5 99.8333,-0.5 101.5,-0.5C 67.8333,33.8333 33.8333,67.8333 -0.5,101.5C -0.5,99.8333 -0.5,98.1667 -0.5,96.5C 32.1667,64.5 64.5,32.1667 96.5,-0.5 Z"/></g>
<g><path style="opacity:0.022" fill="#43443f" d="M 116.5,-0.5 C 118.167,-0.5 119.833,-0.5 121.5,-0.5C 81.1667,40.5 40.5,81.1667 -0.5,121.5C -0.5,119.833 -0.5,118.167 -0.5,116.5C 38.8333,77.8333 77.8333,38.8333 116.5,-0.5 Z"/></g>
<g><path style="opacity:0.022" fill="#43443f" d="M 136.5,-0.5 C 138.167,-0.5 139.833,-0.5 141.5,-0.5C 94.5,47.1667 47.1667,94.5 -0.5,141.5C -0.5,139.833 -0.5,138.167 -0.5,136.5C 45.5,91.1667 91.1667,45.5 136.5,-0.5 Z"/></g>
<g><path style="opacity:0.022" fill="#43443f" d="M 156.5,-0.5 C 158.167,-0.5 159.833,-0.5 161.5,-0.5C 107.833,53.8333 53.8333,107.833 -0.5,161.5C -0.5,159.833 -0.5,158.167 -0.5,156.5C 52.1667,104.5 104.5,52.1667 156.5,-0.5 Z"/></g>
<g><path style="opacity:0.022" fill="#43443f" d="M 176.5,-0.5 C 178.167,-0.5 179.833,-0.5 181.5,-0.5C 121.167,60.5 60.5,121.167 -0.5,181.5C -0.5,179.833 -0.5,178.167 -0.5,176.5C 58.8333,117.833 117.833,58.8333 176.5,-0.5 Z"/></g>
<g><path style="opacity:0.022" fill="#43443f" d="M 196.5,-0.5 C 198.167,-0.5 199.833,-0.5 201.5,-0.5C 134.5,67.1667 67.1667,134.5 -0.5,201.5C -0.5,199.833 -0.5,198.167 -0.5,196.5C 65.5,131.167 131.167,65.5 196.5,-0.5 Z"/></g>
<g><path style="opacity:0.022" fill="#43443f" d="M 216.5,-0.5 C 218.167,-0.5 219.833,-0.5 221.5,-0.5C 147.833,73.8333 73.8333,147.833 -0.5,221.5C -0.5,219.833 -0.5,218.167 -0.5,216.5C 72.1667,144.5 144.5,72.1667 216.5,-0.5 Z"/></g>
<g><path style="opacity:0.022" fill="#43443f" d="M 236.5,-0.5 C 238.167,-0.5 239.833,-0.5 241.5,-0.5C 161.167,80.5 80.5,161.167 -0.5,241.5C -0.5,239.833 -0.5,238.167 -0.5,236.5C 78.8333,157.833 157.833,78.8333 236.5,-0.5 Z"/></g>
<g><path style="opacity:0.022" fill="#43443f" d="M 256.5,-0.5 C 258.167,-0.5 259.833,-0.5 261.5,-0.5C 174.5,87.1667 87.1667,174.5 -0.5,261.5C -0.5,259.833 -0.5,258.167 -0.5,256.5C 85.5,171.167 171.167,85.5 256.5,-0.5 Z"/></g>
<g><path style="opacity:0.022" fill="#43443f" d="M 276.5,-0.5 C 278.167,-0.5 279.833,-0.5 281.5,-0.5C 187.833,93.8333 93.8333,187.833 -0.5,281.5C -0.5,279.833 -0.5,278.167 -0.5,276.5C 92.1667,184.5 184.5,92.1667 276.5,-0.5 Z"/></g>
<g><path style="opacity:0.022" fill="#43443f" d="M 296.5,-0.5 C 298.167,-0.5 299.833,-0.5 301.5,-0.5C 201.167,100.5 100.5,201.167 -0.5,301.5C -0.5,299.833 -0.5,298.167 -0.5,296.5C 98.8333,197.833 197.833,98.8333 296.5,-0.5 Z"/></g>
<g><path style="opacity:0.022" fill="#43443f" d="M 316.5,-0.5 C 318.167,-0.5 319.833,-0.5 321.5,-0.5C 214.5,107.167 107.167,214.5 -0.5,321.5C -0.5,319.833 -0.5,318.167 -0.5,316.5C 105.5,211.167 211.167,105.5 316.5,-0.5 Z"/></g>
<g><path style="opacity:0.022" fill="#43443f" d="M 336.5,-0.5 C 338.167,-0.5 339.833,-0.5 341.5,-0.5C 227.833,113.833 113.833,227.833 -0.5,341.5C -0.5,339.833 -0.5,338.167 -0.5,336.5C 112.167,224.5 224.5,112.167 336.5,-0.5 Z"/></g>
<g><path style="opacity:0.022" fill="#43443f" d="M 356.5,-0.5 C 358.167,-0.5 359.833,-0.5 361.5,-0.5C 241.167,120.5 120.5,241.167 -0.5,361.5C -0.5,359.833 -0.5,358.167 -0.5,356.5C 118.833,237.833 237.833,118.833 356.5,-0.5 Z"/></g>
<g><path style="opacity:0.022" fill="#43443f" d="M 376.5,-0.5 C 378.167,-0.5 379.833,-0.5 381.5,-0.5C 254.5,127.167 127.167,254.5 -0.5,381.5C -0.5,379.833 -0.5,378.167 -0.5,376.5C 125.5,251.167 251.167,125.5 376.5,-0.5 Z"/></g>
<g><path style="opacity:0.022" fill="#44443f" d="M 396.5,-0.5 C 398.167,-0.5 399.833,-0.5 401.5,-0.5C 352.167,49.1667 302.833,98.8333 253.5,148.5C 252.833,148.5 252.5,148.833 252.5,149.5C 248.801,152.35 244.801,154.683 240.5,156.5C 292.5,104.167 344.5,51.8333 396.5,-0.5 Z"/></g>
<g><path style="opacity:0.022" fill="#444440" d="M 416.5,-0.5 C 418.167,-0.5 419.833,-0.5 421.5,-0.5C 379.167,42.1667 336.833,84.8333 294.5,127.5C 293.833,127.5 293.5,127.833 293.5,128.5C 290.622,130.105 287.622,131.439 284.5,132.5C 328.5,88.1667 372.5,43.8333 416.5,-0.5 Z"/></g>
<g><path style="opacity:0.022" fill="#444440" d="M 436.5,-0.5 C 438.167,-0.5 439.833,-0.5 441.5,-0.5C 403.5,37.8333 365.5,76.1667 327.5,114.5C 326.833,114.5 326.5,114.833 326.5,115.5C 324.299,116.566 321.965,117.233 319.5,117.5C 358.5,78.1667 397.5,38.8333 436.5,-0.5 Z"/></g>
<g><path style="opacity:0.022" fill="#444440" d="M 456.5,-0.5 C 458.167,-0.5 459.833,-0.5 461.5,-0.5C 426.167,35.1667 390.833,70.8333 355.5,106.5C 353.167,107.167 350.833,107.833 348.5,108.5C 384.5,72.1667 420.5,35.8333 456.5,-0.5 Z"/></g>
<g><path style="opacity:0.022" fill="#44443f" d="M 476.5,-0.5 C 478.167,-0.5 479.833,-0.5 481.5,-0.5C 474.167,7.16667 466.833,14.8333 459.5,22.5C 457.565,23.1495 455.565,23.4828 453.5,23.5C 461.167,15.5 468.833,7.5 476.5,-0.5 Z"/></g>
<g><path style="opacity:0.022" fill="#43443f" d="M 496.5,-0.5 C 498.167,-0.5 499.833,-0.5 501.5,-0.5C 493.833,7.83333 485.833,15.8333 477.5,23.5C 475.901,23.7678 474.568,23.4345 473.5,22.5C 481.5,15.1667 489.167,7.5 496.5,-0.5 Z"/></g>
<g><path style="opacity:0.022" fill="#43443f" d="M 516.5,-0.5 C 518.167,-0.5 519.833,-0.5 521.5,-0.5C 511.5,9.83333 501.5,20.1667 491.5,30.5C 490.5,29.8333 489.5,29.1667 488.5,28.5C 497.833,18.8333 507.167,9.16667 516.5,-0.5 Z"/></g>
<g><path style="opacity:0.022" fill="#44443f" d="M 536.5,-0.5 C 538.167,-0.5 539.833,-0.5 541.5,-0.5C 528.5,13.1667 515.167,26.5 501.5,39.5C 500.599,38.7095 499.932,37.7095 499.5,36.5C 512.167,24.5 524.5,12.1667 536.5,-0.5 Z"/></g>
<g><path style="opacity:0.022" fill="#43443f" d="M 556.5,-0.5 C 558.167,-0.5 559.833,-0.5 561.5,-0.5C 544.167,17.1667 526.833,34.8333 509.5,52.5C 508.326,51.4863 507.66,50.153 507.5,48.5C 524.167,32.5 540.5,16.1667 556.5,-0.5 Z"/></g>
<g><path style="opacity:0.022" fill="#43443f" d="M 576.5,-0.5 C 578.167,-0.5 579.833,-0.5 581.5,-0.5C 558.5,23.1667 535.167,46.5 511.5,69.5C 511.5,67.8333 511.5,66.1667 511.5,64.5C 533.5,43.1667 555.167,21.5 576.5,-0.5 Z"/></g>
<g><path style="opacity:0.022" fill="#43443f" d="M 596.5,-0.5 C 598.167,-0.5 599.833,-0.5 601.5,-0.5C 571.833,29.8333 541.833,59.8333 511.5,89.5C 511.5,87.8333 511.5,86.1667 511.5,84.5C 540.167,56.5 568.5,28.1667 596.5,-0.5 Z"/></g>
<g><path style="opacity:0.022" fill="#43443f" d="M 616.5,-0.5 C 618.167,-0.5 619.833,-0.5 621.5,-0.5C 589.5,31.8333 557.5,64.1667 525.5,96.5C 524.041,96.5674 522.708,96.2341 521.5,95.5C 553.167,63.5 584.833,31.5 616.5,-0.5 Z"/></g>
<g><path style="opacity:0.022" fill="#43443f" d="M 636.5,-0.5 C 638.167,-0.5 639.833,-0.5 641.5,-0.5C 608.5,32.8333 575.5,66.1667 542.5,99.5C 541.292,98.7659 539.959,98.4326 538.5,98.5C 571.167,65.5 603.833,32.5 636.5,-0.5 Z"/></g>
<g><path style="opacity:0.022" fill="#43443f" d="M 656.5,-0.5 C 658.167,-0.5 659.833,-0.5 661.5,-0.5C 627.5,33.8333 593.5,68.1667 559.5,102.5C 558.041,102.567 556.708,102.234 555.5,101.5C 589.167,67.5 622.833,33.5 656.5,-0.5 Z"/></g>
<g><path style="opacity:0.022" fill="#43443f" d="M 676.5,-0.5 C 678.167,-0.5 679.833,-0.5 681.5,-0.5C 646.167,35.1667 610.833,70.8333 575.5,106.5C 574.041,106.567 572.708,106.234 571.5,105.5C 606.5,70.1667 641.5,34.8333 676.5,-0.5 Z"/></g>
<g><path style="opacity:0.022" fill="#444440" d="M 696.5,-0.5 C 698.167,-0.5 699.833,-0.5 701.5,-0.5C 664.5,36.8333 627.5,74.1667 590.5,111.5C 589.005,111.011 587.671,110.345 586.5,109.5C 623.5,73.1667 660.167,36.5 696.5,-0.5 Z"/></g>
<g><path style="opacity:0.022" fill="#43443f" d="M 716.5,-0.5 C 718.167,-0.5 719.833,-0.5 721.5,-0.5C 683.167,38.5 644.5,77.1667 605.5,115.5C 604.209,115.737 603.209,115.404 602.5,114.5C 640.5,76.1667 678.5,37.8333 716.5,-0.5 Z"/></g>
<g><path style="opacity:0.022" fill="#43443f" d="M 736.5,-0.5 C 738.167,-0.5 739.833,-0.5 741.5,-0.5C 701.167,40.1667 660.833,80.8333 620.5,121.5C 618.847,121.34 617.514,120.674 616.5,119.5C 656.833,79.8333 696.833,39.8333 736.5,-0.5 Z"/></g>
<g><path style="opacity:0.022" fill="#44433f" d="M 756.5,-0.5 C 758.167,-0.5 759.833,-0.5 761.5,-0.5C 719.167,42.1667 676.833,84.8333 634.5,127.5C 632.847,127.34 631.514,126.674 630.5,125.5C 672.833,83.8333 714.833,41.8333 756.5,-0.5 Z"/></g>
<g><path style="opacity:0.022" fill="#44443f" d="M 776.5,-0.5 C 778.167,-0.5 779.833,-0.5 781.5,-0.5C 737.167,44.1667 692.833,88.8333 648.5,133.5C 646.62,133.771 645.287,133.104 644.5,131.5C 688.833,87.8333 732.833,43.8333 776.5,-0.5 Z"/></g>
<g><path style="opacity:0.022" fill="#44433f" d="M 796.5,-0.5 C 798.167,-0.5 799.833,-0.5 801.5,-0.5C 754.833,46.5 708.167,93.5 661.5,140.5C 659.973,140.573 658.973,139.906 658.5,138.5C 704.5,92.1667 750.5,45.8333 796.5,-0.5 Z"/></g>
<g><path style="opacity:0.022" fill="#444440" d="M 816.5,-0.5 C 818.167,-0.5 819.833,-0.5 821.5,-0.5C 772.5,48.8333 723.5,98.1667 674.5,147.5C 672.847,147.34 671.514,146.674 670.5,145.5C 719.5,97.1667 768.167,48.5 816.5,-0.5 Z"/></g>
<g><path style="opacity:0.022" fill="#43443f" d="M 836.5,-0.5 C 838.167,-0.5 839.833,-0.5 841.5,-0.5C 790.167,51.5 738.5,103.167 686.5,154.5C 684.973,154.573 683.973,153.906 683.5,152.5C 734.833,101.833 785.833,50.8333 836.5,-0.5 Z"/></g>
<g><path style="opacity:0.022" fill="#444440" d="M 856.5,-0.5 C 857.5,-0.5 858.5,-0.5 859.5,-0.5C 833.868,25.632 808.035,51.632 782,77.5C 780.489,79.8616 778.989,82.1949 777.5,84.5C 776.833,84.5 776.5,84.8333 776.5,85.5C 750.5,111.167 724.5,136.833 698.5,162.5C 696.973,162.573 695.973,161.906 695.5,160.5C 749.5,107.167 803.167,53.5 856.5,-0.5 Z"/></g>
<g><path style="opacity:0.022" fill="#43443f" d="M 876.5,-0.5 C 878.167,-0.5 879.833,-0.5 881.5,-0.5C 876.5,5.16667 871.167,10.5 865.5,15.5C 864.766,14.2921 864.433,12.9587 864.5,11.5C 868.833,7.83333 872.833,3.83333 876.5,-0.5 Z"/></g>
<g><path style="opacity:0.022" fill="#43443f" d="M 896.5,-0.5 C 898.167,-0.5 899.833,-0.5 901.5,-0.5C 891.167,10.5 880.5,21.1667 869.5,31.5C 868.766,30.2921 868.433,28.9587 868.5,27.5C 878.167,18.5 887.5,9.16667 896.5,-0.5 Z"/></g>
<g><path style="opacity:0.022" fill="#43443f" d="M 916.5,-0.5 C 918.167,-0.5 919.833,-0.5 921.5,-0.5C 905.833,15.8333 889.833,31.8333 873.5,47.5C 872.766,46.2921 872.433,44.9587 872.5,43.5C 887.5,29.1667 902.167,14.5 916.5,-0.5 Z"/></g>
<g><path style="opacity:0.022" fill="#43443f" d="M 936.5,-0.5 C 938.167,-0.5 939.833,-0.5 941.5,-0.5C 932.167,9.16667 922.833,18.8333 913.5,28.5C 912.833,28.5 912.5,28.8333 912.5,29.5C 911.833,29.5 911.5,29.8333 911.5,30.5C 910.833,30.5 910.5,30.8333 910.5,31.5C 909.833,31.5 909.5,31.8333 909.5,32.5C 908.833,32.5 908.5,32.8333 908.5,33.5C 907.833,33.5 907.5,33.8333 907.5,34.5C 906.833,34.5 906.5,34.8333 906.5,35.5C 905.833,35.5 905.5,35.8333 905.5,36.5C 904.833,36.5 904.5,36.8333 904.5,37.5C 903.833,37.5 903.5,37.8333 903.5,38.5C 902.833,38.5 902.5,38.8333 902.5,39.5C 901.833,39.5 901.5,39.8333 901.5,40.5C 900.833,40.5 900.5,40.8333 900.5,41.5C 899.833,41.5 899.5,41.8333 899.5,42.5C 898.833,42.5 898.5,42.8333 898.5,43.5C 897.833,43.5 897.5,43.8333 897.5,44.5C 896.833,44.5 896.5,44.8333 896.5,45.5C 895.833,45.5 895.5,45.8333 895.5,46.5C 894.833,46.5 894.5,46.8333 894.5,47.5C 893.833,47.5 893.5,47.8333 893.5,48.5C 892.833,48.5 892.5,48.8333 892.5,49.5C 891.833,49.5 891.5,49.8333 891.5,50.5C 890.833,50.5 890.5,50.8333 890.5,51.5C 889.833,51.5 889.5,51.8333 889.5,52.5C 888.833,52.5 888.5,52.8333 888.5,53.5C 887.833,53.5 887.5,53.8333 887.5,54.5C 886.833,54.5 886.5,54.8333 886.5,55.5C 885.833,55.5 885.5,55.8333 885.5,56.5C 884.833,56.5 884.5,56.8333 884.5,57.5C 883.833,57.5 883.5,57.8333 883.5,58.5C 882.833,58.5 882.5,58.8333 882.5,59.5C 881.833,59.5 881.5,59.8333 881.5,60.5C 880.833,60.5 880.5,60.8333 880.5,61.5C 879.833,61.5 879.5,61.8333 879.5,62.5C 878.833,62.5 878.5,62.8333 878.5,63.5C 878.167,63.5 877.833,63.5 877.5,63.5C 876.766,62.2921 876.433,60.9587 876.5,59.5C 896.833,39.8333 916.833,19.8333 936.5,-0.5 Z"/></g>
<g><path style="opacity:0.022" fill="#44433f" d="M 956.5,-0.5 C 958.167,-0.5 959.833,-0.5 961.5,-0.5C 953.833,7.5 946.167,15.5 938.5,23.5C 937.041,23.5674 935.708,23.2341 934.5,22.5C 941.833,14.8333 949.167,7.16667 956.5,-0.5 Z"/></g>
<g><path style="opacity:0.022" fill="#43443f" d="M 976.5,-0.5 C 978.167,-0.5 979.833,-0.5 981.5,-0.5C 971.167,10.5 960.5,21.1667 949.5,31.5C 948.5,31.1667 947.833,30.5 947.5,29.5C 957.167,19.5 966.833,9.5 976.5,-0.5 Z"/></g>
<g><path style="opacity:0.022" fill="#43443f" d="M 996.5,-0.5 C 998.167,-0.5 999.833,-0.5 1001.5,-0.5C 986.167,15.5 970.5,31.1667 954.5,46.5C 954.567,45.0413 954.234,43.7079 953.5,42.5C 968.167,28.5 982.5,14.1667 996.5,-0.5 Z"/></g>
<g><path style="opacity:0.022" fill="#44443f" d="M 1016.5,-0.5 C 1018.17,-0.5 1019.83,-0.5 1021.5,-0.5C 987.833,33.5 954.167,67.5 920.5,101.5C 919.005,101.011 917.671,100.345 916.5,99.5C 950.167,66.5 983.5,33.1667 1016.5,-0.5 Z"/></g>
<g><path style="opacity:0.022" fill="#43443f" d="M 1023.5,13.5 C 1023.5,15.1667 1023.5,16.8333 1023.5,18.5C 994.167,47.1667 965.167,76.1667 936.5,105.5C 935.292,104.766 933.959,104.433 932.5,104.5C 962.5,73.8333 992.833,43.5 1023.5,13.5 Z"/></g>
<g><path style="opacity:0.998" fill="#f4b444" d="M 859.5,-0.5 C 860.167,-0.5 860.833,-0.5 861.5,-0.5C 862.192,3.59989 863.192,7.59989 864.5,11.5C 864.433,12.9587 864.766,14.2921 865.5,15.5C 866.192,19.5999 867.192,23.5999 868.5,27.5C 868.433,28.9587 868.766,30.2921 869.5,31.5C 870.192,35.5999 871.192,39.5999 872.5,43.5C 872.433,44.9587 872.766,46.2921 873.5,47.5C 874.192,51.5999 875.192,55.5999 876.5,59.5C 876.433,60.9587 876.766,62.2921 877.5,63.5C 877.5,63.8333 877.5,64.1667 877.5,64.5C 846.883,96.7838 815.55,128.45 783.5,159.5C 783.5,159.167 783.5,158.833 783.5,158.5C 783.567,157.041 783.234,155.708 782.5,154.5C 781.808,150.4 780.808,146.4 779.5,142.5C 779.567,141.041 779.234,139.708 778.5,138.5C 777.787,134.313 776.787,130.313 775.5,126.5C 775.768,124.901 775.434,123.568 774.5,122.5C 773.673,118.193 773.007,113.86 772.5,109.5C 772.5,107.833 772.5,106.167 772.5,104.5C 772.413,97.8497 773.747,91.5164 776.5,85.5C 777.167,85.5 777.5,85.1667 777.5,84.5C 778.989,82.1949 780.489,79.8616 782,77.5C 808.035,51.632 833.868,25.632 859.5,-0.5 Z"/></g>
<g><path style="opacity:0.992" fill="#af6227" d="M 459.5,22.5 C 464.167,22.5 468.833,22.5 473.5,22.5C 474.568,23.4345 475.901,23.7678 477.5,23.5C 481.178,24.9567 484.845,26.6234 488.5,28.5C 489.5,29.1667 490.5,29.8333 491.5,30.5C 494.45,32.1153 497.116,34.1153 499.5,36.5C 499.932,37.7095 500.599,38.7095 501.5,39.5C 503.761,42.3649 505.761,45.3649 507.5,48.5C 507.66,50.153 508.326,51.4863 509.5,52.5C 510.486,56.4432 511.152,60.4432 511.5,64.5C 508.479,52.3207 500.645,46.3207 488,46.5C 477.128,46.3802 469.795,51.3802 466,61.5C 465.5,71.828 465.334,82.1613 465.5,92.5C 449.469,92.5023 433.469,93.1689 417.5,94.5C 417.5,91.1667 417.5,87.8333 417.5,84.5C 417.5,82.8333 417.5,81.1667 417.5,79.5C 417.392,74.1301 417.725,68.7968 418.5,63.5C 418.517,61.4352 418.85,59.4352 419.5,57.5C 424.477,39.8558 435.811,28.5225 453.5,23.5C 455.565,23.4828 457.565,23.1495 459.5,22.5 Z"/></g>
<g><path style="opacity:0.997" fill="#7f4122" d="M 934.5,22.5 C 935.708,23.2341 937.041,23.5674 938.5,23.5C 941.921,24.5389 944.588,26.5389 946.5,29.5C 781.201,195.299 615.701,360.965 450,526.5C 449.536,527.094 449.369,527.761 449.5,528.5C 440.784,520.053 439.284,510.386 445,499.5C 460.971,482.528 477.304,465.862 494,449.5C 494.464,448.906 494.631,448.239 494.5,447.5C 512.116,431.552 529.116,414.885 545.5,397.5C 567.833,375.833 589.833,353.833 611.5,331.5C 633.833,309.833 655.833,287.833 677.5,265.5C 700.167,243.5 722.5,221.167 744.5,198.5C 744.5,198.167 744.5,197.833 744.5,197.5C 745.167,197.5 745.5,197.167 745.5,196.5C 746.167,196.5 746.5,196.167 746.5,195.5C 747.167,195.5 747.5,195.167 747.5,194.5C 748.167,194.5 748.5,194.167 748.5,193.5C 749.167,193.5 749.5,193.167 749.5,192.5C 750.167,192.5 750.5,192.167 750.5,191.5C 751.167,191.5 751.5,191.167 751.5,190.5C 752.167,190.5 752.5,190.167 752.5,189.5C 753.167,189.5 753.5,189.167 753.5,188.5C 754.167,188.5 754.5,188.167 754.5,187.5C 755.167,187.5 755.5,187.167 755.5,186.5C 756.167,186.5 756.5,186.167 756.5,185.5C 757.167,185.5 757.5,185.167 757.5,184.5C 758.167,184.5 758.5,184.167 758.5,183.5C 759.167,183.5 759.5,183.167 759.5,182.5C 760.167,182.5 760.5,182.167 760.5,181.5C 761.167,181.5 761.5,181.167 761.5,180.5C 762.167,180.5 762.5,180.167 762.5,179.5C 763.167,179.5 763.5,179.167 763.5,178.5C 764.167,178.5 764.5,178.167 764.5,177.5C 765.167,177.5 765.5,177.167 765.5,176.5C 766.167,176.5 766.5,176.167 766.5,175.5C 767.167,175.5 767.5,175.167 767.5,174.5C 768.167,174.5 768.5,174.167 768.5,173.5C 769.167,173.5 769.5,173.167 769.5,172.5C 770.167,172.5 770.5,172.167 770.5,171.5C 771.167,171.5 771.5,171.167 771.5,170.5C 772.167,170.5 772.5,170.167 772.5,169.5C 773.167,169.5 773.5,169.167 773.5,168.5C 774.167,168.5 774.5,168.167 774.5,167.5C 775.167,167.5 775.5,167.167 775.5,166.5C 776.167,166.5 776.5,166.167 776.5,165.5C 777.167,165.5 777.5,165.167 777.5,164.5C 778.167,164.5 778.5,164.167 778.5,163.5C 779.167,163.5 779.5,163.167 779.5,162.5C 780.167,162.5 780.5,162.167 780.5,161.5C 781.167,161.5 781.5,161.167 781.5,160.5C 782.167,160.5 782.5,160.167 782.5,159.5C 782.833,159.5 783.167,159.5 783.5,159.5C 815.55,128.45 846.883,96.7838 877.5,64.5C 878.167,64.5 878.5,64.1667 878.5,63.5C 879.167,63.5 879.5,63.1667 879.5,62.5C 880.167,62.5 880.5,62.1667 880.5,61.5C 881.167,61.5 881.5,61.1667 881.5,60.5C 882.167,60.5 882.5,60.1667 882.5,59.5C 883.167,59.5 883.5,59.1667 883.5,58.5C 884.167,58.5 884.5,58.1667 884.5,57.5C 885.167,57.5 885.5,57.1667 885.5,56.5C 886.167,56.5 886.5,56.1667 886.5,55.5C 887.167,55.5 887.5,55.1667 887.5,54.5C 888.167,54.5 888.5,54.1667 888.5,53.5C 889.167,53.5 889.5,53.1667 889.5,52.5C 890.167,52.5 890.5,52.1667 890.5,51.5C 891.167,51.5 891.5,51.1667 891.5,50.5C 892.167,50.5 892.5,50.1667 892.5,49.5C 893.167,49.5 893.5,49.1667 893.5,48.5C 894.167,48.5 894.5,48.1667 894.5,47.5C 895.167,47.5 895.5,47.1667 895.5,46.5C 896.167,46.5 896.5,46.1667 896.5,45.5C 897.167,45.5 897.5,45.1667 897.5,44.5C 898.167,44.5 898.5,44.1667 898.5,43.5C 899.167,43.5 899.5,43.1667 899.5,42.5C 900.167,42.5 900.5,42.1667 900.5,41.5C 901.167,41.5 901.5,41.1667 901.5,40.5C 902.167,40.5 902.5,40.1667 902.5,39.5C 903.167,39.5 903.5,39.1667 903.5,38.5C 904.167,38.5 904.5,38.1667 904.5,37.5C 905.167,37.5 905.5,37.1667 905.5,36.5C 906.167,36.5 906.5,36.1667 906.5,35.5C 907.167,35.5 907.5,35.1667 907.5,34.5C 908.167,34.5 908.5,34.1667 908.5,33.5C 909.167,33.5 909.5,33.1667 909.5,32.5C 910.167,32.5 910.5,32.1667 910.5,31.5C 911.167,31.5 911.5,31.1667 911.5,30.5C 912.167,30.5 912.5,30.1667 912.5,29.5C 913.167,29.5 913.5,29.1667 913.5,28.5C 919.617,23.6862 926.617,21.6862 934.5,22.5 Z"/></g>
<g><path style="opacity:1" fill="#73371b" d="M 946.5,29.5 C 946.833,29.5 947.167,29.5 947.5,29.5C 947.833,30.5 948.5,31.1667 949.5,31.5C 951.683,34.8637 953.016,38.5304 953.5,42.5C 954.234,43.7079 954.567,45.0413 954.5,46.5C 954.061,51.1828 952.561,55.5162 950,59.5C 936.965,72.3682 924.131,85.3682 911.5,98.5C 879.833,129.5 848.5,160.833 817.5,192.5C 803.833,205.5 790.5,218.833 777.5,232.5C 755.167,254.167 733.167,276.167 711.5,298.5C 689.167,320.167 667.167,342.167 645.5,364.5C 622.833,386.5 600.5,408.833 578.5,431.5C 566.5,442.833 554.833,454.5 543.5,466.5C 538.167,471.167 533.167,476.167 528.5,481.5C 510.777,499.225 492.777,516.558 474.5,533.5C 468.87,534.521 463.204,534.687 457.5,534C 454.379,532.694 451.713,530.86 449.5,528.5C 449.369,527.761 449.536,527.094 450,526.5C 615.701,360.965 781.201,195.299 946.5,29.5 Z"/></g>
<g><path style="opacity:0.022" fill="#43443f" d="M 1023.5,33.5 C 1023.5,35.1667 1023.5,36.8333 1023.5,38.5C 999.5,61.8333 975.833,85.5 952.5,109.5C 951.292,108.766 949.959,108.433 948.5,108.5C 973.167,83.1667 998.167,58.1667 1023.5,33.5 Z"/></g>
<g><path style="opacity:0.022" fill="#43443f" d="M 1023.5,53.5 C 1023.5,55.1667 1023.5,56.8333 1023.5,58.5C 1004.83,76.5 986.5,94.8333 968.5,113.5C 967.292,112.766 965.959,112.433 964.5,112.5C 983.833,92.5 1003.5,72.8333 1023.5,53.5 Z"/></g>
<g><path style="opacity:1" fill="#9e5123" d="M 511.5,64.5 C 511.5,66.1667 511.5,67.8333 511.5,69.5C 511.5,74.5 511.5,79.5 511.5,84.5C 511.5,86.1667 511.5,87.8333 511.5,89.5C 511.5,91.1667 511.5,92.8333 511.5,94.5C 500.844,93.9005 490.177,93.5672 479.5,93.5C 475.03,92.5139 470.363,92.1805 465.5,92.5C 465.334,82.1613 465.5,71.828 466,61.5C 469.795,51.3802 477.128,46.3802 488,46.5C 500.645,46.3207 508.479,52.3207 511.5,64.5 Z"/></g>
<g><path style="opacity:0.022" fill="#43443f" d="M 419.5,57.5 C 418.85,59.4352 418.517,61.4352 418.5,63.5C 405.833,75.5 393.5,87.8333 381.5,100.5C 379.5,100.833 377.5,101.167 375.5,101.5C 389.833,86.5 404.5,71.8333 419.5,57.5 Z"/></g>
<g><path style="opacity:0.022" fill="#43443f" d="M 1023.5,73.5 C 1023.5,75.1667 1023.5,76.8333 1023.5,78.5C 954.833,146.833 886.167,215.167 817.5,283.5C 816.599,282.71 815.932,281.71 815.5,280.5C 884.833,211.5 954.167,142.5 1023.5,73.5 Z"/></g>
<g><path style="opacity:0.022" fill="#43443f" d="M 417.5,79.5 C 417.5,81.1667 417.5,82.8333 417.5,84.5C 413.167,88.1667 409.167,92.1667 405.5,96.5C 403.833,96.5 402.167,96.5 400.5,96.5C 405.833,90.5 411.5,84.8333 417.5,79.5 Z"/></g>
<g><path style="opacity:0.022" fill="#43443f" d="M 1023.5,93.5 C 1023.5,95.1667 1023.5,96.8333 1023.5,98.5C 957.167,164.167 891.167,230.167 825.5,296.5C 824.326,295.486 823.66,294.153 823.5,292.5C 890.167,226.167 956.833,159.833 1023.5,93.5 Z"/></g>
<g><path style="opacity:0.999" fill="#ee4a4c" d="M 465.5,92.5 C 470.363,92.1805 475.03,92.5139 479.5,93.5C 475.486,93.3345 471.486,93.5012 467.5,94C 431.299,130.035 395.299,166.201 359.5,202.5C 273.459,234.204 210.126,291.204 169.5,373.5C 169.565,373.062 169.399,372.728 169,372.5C 127.965,413.701 86.7987,454.701 45.5,495.5C 45.6287,493.784 45.962,492.117 46.5,490.5C 46.2665,485.105 46.5998,479.772 47.5,474.5C 47.5,472.833 47.5,471.167 47.5,469.5C 48.2486,463.845 48.9152,458.178 49.5,452.5C 50.1495,450.565 50.4828,448.565 50.5,446.5C 50.5,445.833 50.5,445.167 50.5,444.5C 167.118,329.549 283.118,213.882 398.5,97.5C 399.167,97.1667 399.833,96.8333 400.5,96.5C 402.167,96.5 403.833,96.5 405.5,96.5C 409.5,95.8333 413.5,95.1667 417.5,94.5C 433.469,93.1689 449.469,92.5023 465.5,92.5 Z"/></g>
<g><path style="opacity:0.998" fill="#ef9820" d="M 911.5,98.5 C 913.042,99.3007 914.708,99.634 916.5,99.5C 917.671,100.345 919.005,101.011 920.5,101.5C 924.6,102.192 928.6,103.192 932.5,104.5C 933.959,104.433 935.292,104.766 936.5,105.5C 937.791,105.263 938.791,105.596 939.5,106.5C 941.562,107.776 943.896,108.61 946.5,109C 915.632,139.701 884.965,170.535 854.5,201.5C 854.5,202.167 854.167,202.5 853.5,202.5C 849.499,201.5 845.499,200.5 841.5,199.5C 840.292,198.766 838.959,198.433 837.5,198.5C 833.981,197.036 830.314,196.036 826.5,195.5C 825.432,194.566 824.099,194.232 822.5,194.5C 820.972,193.691 819.306,193.024 817.5,192.5C 848.5,160.833 879.833,129.5 911.5,98.5 Z"/></g>
<g><path style="opacity:0.998" fill="#ee4a4c" d="M 398.5,97.5 C 283.118,213.882 167.118,329.549 50.5,444.5C 51.7504,439.246 52.7504,433.913 53.5,428.5C 54.3414,426.621 54.6747,424.621 54.5,422.5C 56.475,415.933 58.1417,409.267 59.5,402.5C 60.5664,400.299 61.233,397.965 61.5,395.5C 63.8279,388.182 66.1612,380.849 68.5,373.5C 69.4986,370.838 70.4986,368.172 71.5,365.5C 74.832,357.172 78.1653,348.838 81.5,340.5C 83.1054,337.622 84.4388,334.622 85.5,331.5C 91.1015,321.297 96.4349,310.963 101.5,300.5C 102.167,300.5 102.5,300.167 102.5,299.5C 103.167,299.5 103.5,299.167 103.5,298.5C 106.194,294.149 108.86,289.816 111.5,285.5C 145.5,233.5 188.5,190.5 240.5,156.5C 244.801,154.683 248.801,152.35 252.5,149.5C 253.167,149.5 253.5,149.167 253.5,148.5C 263.816,143.196 274.15,137.862 284.5,132.5C 287.622,131.439 290.622,130.105 293.5,128.5C 294.167,128.5 294.5,128.167 294.5,127.5C 302.95,124.441 311.284,121.107 319.5,117.5C 321.965,117.233 324.299,116.566 326.5,115.5C 327.167,115.5 327.5,115.167 327.5,114.5C 334.499,112.5 341.499,110.5 348.5,108.5C 350.833,107.833 353.167,107.167 355.5,106.5C 362.167,104.833 368.833,103.167 375.5,101.5C 377.5,101.167 379.5,100.833 381.5,100.5C 387.101,99.1776 392.767,98.1776 398.5,97.5 Z"/></g>
<g><path style="opacity:0.022" fill="#43443f" d="M 772.5,104.5 C 772.5,106.167 772.5,107.833 772.5,109.5C 751.833,129.833 731.167,150.167 710.5,170.5C 708.973,170.573 707.973,169.906 707.5,168.5C 729.167,147.167 750.833,125.833 772.5,104.5 Z"/></g>
<g><path style="opacity:0.996" fill="#f4b344" d="M 939.5,106.5 C 942.63,106.7 945.63,107.366 948.5,108.5C 949.959,108.433 951.292,108.766 952.5,109.5C 956.6,110.192 960.6,111.192 964.5,112.5C 965.959,112.433 967.292,112.766 968.5,113.5C 971.625,113.865 974.625,114.698 977.5,116C 951.167,142.333 924.833,168.667 898.5,195C 892.162,199.503 885.162,202.337 877.5,203.5C 875.565,204.15 873.565,204.483 871.5,204.5C 867.106,204.156 862.772,203.49 858.5,202.5C 857.167,202.167 855.833,201.833 854.5,201.5C 884.965,170.535 915.632,139.701 946.5,109C 943.896,108.61 941.562,107.776 939.5,106.5 Z"/></g>
<g><path style="opacity:0.022" fill="#43443f" d="M 1023.5,113.5 C 1023.5,115.167 1023.5,116.833 1023.5,118.5C 959.833,181.833 896.167,245.167 832.5,308.5C 831.599,307.71 830.932,306.71 830.5,305.5C 894.833,241.5 959.167,177.5 1023.5,113.5 Z"/></g>
<g><path style="opacity:0.022" fill="#43443f" d="M 774.5,122.5 C 775.434,123.568 775.768,124.901 775.5,126.5C 757.5,143.833 739.833,161.5 722.5,179.5C 720.973,179.573 719.973,178.906 719.5,177.5C 737.5,158.833 755.833,140.5 774.5,122.5 Z"/></g>
<g><path style="opacity:0.998" fill="#ee4a4c" d="M 479.5,93.5 C 490.177,93.5672 500.844,93.9005 511.5,94.5C 514.786,95.2071 518.119,95.5405 521.5,95.5C 522.708,96.2341 524.041,96.5674 525.5,96.5C 529.853,97.0588 534.186,97.7255 538.5,98.5C 539.959,98.4326 541.292,98.7659 542.5,99.5C 546.833,100.167 551.167,100.833 555.5,101.5C 556.708,102.234 558.041,102.567 559.5,102.5C 563.4,103.808 567.4,104.808 571.5,105.5C 572.708,106.234 574.041,106.567 575.5,106.5C 579.095,107.697 582.761,108.697 586.5,109.5C 587.671,110.345 589.005,111.011 590.5,111.5C 594.5,112.5 598.5,113.5 602.5,114.5C 603.209,115.404 604.209,115.737 605.5,115.5C 608.797,117.601 612.463,118.935 616.5,119.5C 617.514,120.674 618.847,121.34 620.5,121.5C 623.603,123.384 626.937,124.718 630.5,125.5C 631.514,126.674 632.847,127.34 634.5,127.5C 637.614,129.391 640.948,130.724 644.5,131.5C 645.287,133.104 646.62,133.771 648.5,133.5C 651.515,135.674 654.849,137.341 658.5,138.5C 658.973,139.906 659.973,140.573 661.5,140.5C 664.304,142.405 667.304,144.071 670.5,145.5C 671.514,146.674 672.847,147.34 674.5,147.5C 677.008,149.924 680.008,151.59 683.5,152.5C 683.973,153.906 684.973,154.573 686.5,154.5C 689.291,156.735 692.291,158.735 695.5,160.5C 695.973,161.906 696.973,162.573 698.5,162.5C 701.32,164.745 704.32,166.745 707.5,168.5C 707.973,169.906 708.973,170.573 710.5,170.5C 713.19,173.185 716.19,175.518 719.5,177.5C 719.973,178.906 720.973,179.573 722.5,179.5C 724.751,182.295 727.418,184.628 730.5,186.5C 731.29,187.401 732.29,188.068 733.5,188.5C 735.751,191.295 738.418,193.628 741.5,195.5C 741.833,196.5 742.5,197.167 743.5,197.5C 743.5,198.167 743.833,198.5 744.5,198.5C 722.5,221.167 700.167,243.5 677.5,265.5C 622.414,217.557 558.08,191.224 484.5,186.5C 441.954,183.918 400.288,189.251 359.5,202.5C 395.299,166.201 431.299,130.035 467.5,94C 471.486,93.5012 475.486,93.3345 479.5,93.5 Z"/></g>
<g><path style="opacity:0.022" fill="#43443f" d="M 1023.5,133.5 C 1023.5,135.167 1023.5,136.833 1023.5,138.5C 962.167,199.5 900.833,260.5 839.5,321.5C 838.599,320.71 837.932,319.71 837.5,318.5C 899.5,256.833 961.5,195.167 1023.5,133.5 Z"/></g>
<g><path style="opacity:0.022" fill="#43443f" d="M 778.5,138.5 C 779.234,139.708 779.567,141.041 779.5,142.5C 763.833,157.5 748.5,172.833 733.5,188.5C 732.29,188.068 731.29,187.401 730.5,186.5C 746.167,170.167 762.167,154.167 778.5,138.5 Z"/></g>
<g><path style="opacity:0.022" fill="#43443f" d="M 1023.5,153.5 C 1023.5,155.167 1023.5,156.833 1023.5,158.5C 964.167,217.167 905.167,276.167 846.5,335.5C 845.326,334.486 844.66,333.153 844.5,331.5C 904.167,272.167 963.833,212.833 1023.5,153.5 Z"/></g>
<g><path style="opacity:0.022" fill="#43443f" d="M 782.5,154.5 C 783.234,155.708 783.567,157.041 783.5,158.5C 782.833,158.5 782.5,158.833 782.5,159.5C 781.833,159.5 781.5,159.833 781.5,160.5C 780.833,160.5 780.5,160.833 780.5,161.5C 779.833,161.5 779.5,161.833 779.5,162.5C 778.833,162.5 778.5,162.833 778.5,163.5C 777.833,163.5 777.5,163.833 777.5,164.5C 776.833,164.5 776.5,164.833 776.5,165.5C 775.833,165.5 775.5,165.833 775.5,166.5C 774.833,166.5 774.5,166.833 774.5,167.5C 773.833,167.5 773.5,167.833 773.5,168.5C 772.833,168.5 772.5,168.833 772.5,169.5C 771.833,169.5 771.5,169.833 771.5,170.5C 770.833,170.5 770.5,170.833 770.5,171.5C 769.833,171.5 769.5,171.833 769.5,172.5C 768.833,172.5 768.5,172.833 768.5,173.5C 767.833,173.5 767.5,173.833 767.5,174.5C 766.833,174.5 766.5,174.833 766.5,175.5C 765.833,175.5 765.5,175.833 765.5,176.5C 764.833,176.5 764.5,176.833 764.5,177.5C 763.833,177.5 763.5,177.833 763.5,178.5C 762.833,178.5 762.5,178.833 762.5,179.5C 761.833,179.5 761.5,179.833 761.5,180.5C 760.833,180.5 760.5,180.833 760.5,181.5C 759.833,181.5 759.5,181.833 759.5,182.5C 758.833,182.5 758.5,182.833 758.5,183.5C 757.833,183.5 757.5,183.833 757.5,184.5C 756.833,184.5 756.5,184.833 756.5,185.5C 755.833,185.5 755.5,185.833 755.5,186.5C 754.833,186.5 754.5,186.833 754.5,187.5C 753.833,187.5 753.5,187.833 753.5,188.5C 752.833,188.5 752.5,188.833 752.5,189.5C 751.833,189.5 751.5,189.833 751.5,190.5C 750.833,190.5 750.5,190.833 750.5,191.5C 749.833,191.5 749.5,191.833 749.5,192.5C 748.833,192.5 748.5,192.833 748.5,193.5C 747.833,193.5 747.5,193.833 747.5,194.5C 746.833,194.5 746.5,194.833 746.5,195.5C 745.833,195.5 745.5,195.833 745.5,196.5C 744.833,196.5 744.5,196.833 744.5,197.5C 744.167,197.5 743.833,197.5 743.5,197.5C 742.5,197.167 741.833,196.5 741.5,195.5C 754.833,181.5 768.5,167.833 782.5,154.5 Z"/></g>
<g><path style="opacity:0.022" fill="#44433f" d="M 1023.5,173.5 C 1023.5,175.167 1023.5,176.833 1023.5,178.5C 966.167,235.167 909.167,292.167 852.5,349.5C 851.326,348.486 850.66,347.153 850.5,345.5C 908.167,288.167 965.833,230.833 1023.5,173.5 Z"/></g>
<g><path style="opacity:1" fill="#eaedf7" d="M 484.5,186.5 C 558.08,191.224 622.414,217.557 677.5,265.5C 655.833,287.833 633.833,309.833 611.5,331.5C 577.252,303.287 537.919,286.287 493.5,280.5C 446.803,274.734 402.47,282.4 360.5,303.5C 359.761,303.631 359.094,303.464 358.5,303C 397.167,264.333 435.833,225.667 474.5,187C 477.817,186.502 481.15,186.335 484.5,186.5 Z"/></g>
<g><path style="opacity:0.022" fill="#44433f" d="M 1023.5,193.5 C 1023.5,195.167 1023.5,196.833 1023.5,198.5C 968.167,253.5 912.833,308.5 857.5,363.5C 856.766,362.292 856.433,360.959 856.5,359.5C 912.167,304.167 967.833,248.833 1023.5,193.5 Z"/></g>
<g><path style="opacity:0.022" fill="#44443f" d="M 822.5,194.5 C 824.099,194.232 825.432,194.566 826.5,195.5C 812.167,209.5 797.833,223.5 783.5,237.5C 782.5,237.167 781.833,236.5 781.5,235.5C 794.833,221.5 808.5,207.833 822.5,194.5 Z"/></g>
<g><path style="opacity:0.022" fill="#43443f" d="M 837.5,198.5 C 838.959,198.433 840.292,198.766 841.5,199.5C 825.5,216.167 809.167,232.5 792.5,248.5C 791.5,248.167 790.833,247.5 790.5,246.5C 806.167,230.5 821.833,214.5 837.5,198.5 Z"/></g>
<g><path style="opacity:0.022" fill="#444440" d="M 854.5,201.5 C 855.833,201.833 857.167,202.167 858.5,202.5C 839.5,221.833 820.5,241.167 801.5,260.5C 800.094,260.027 799.427,259.027 799.5,257.5C 817.5,239.167 835.5,220.833 853.5,202.5C 854.167,202.5 854.5,202.167 854.5,201.5 Z"/></g>
<g><path style="opacity:0.022" fill="#444440" d="M 877.5,203.5 C 855.167,226.5 832.5,249.167 809.5,271.5C 808.094,271.027 807.427,270.027 807.5,268.5C 829.167,247.5 850.5,226.167 871.5,204.5C 873.565,204.483 875.565,204.15 877.5,203.5 Z"/></g>
<g><path style="opacity:0.022" fill="#43443f" d="M 1023.5,213.5 C 1023.5,215.167 1023.5,216.833 1023.5,218.5C 970.167,271.167 917.167,324.167 864.5,377.5C 863.5,376.833 862.5,376.167 861.5,375.5C 861.5,375.167 861.5,374.833 861.5,374.5C 915.5,320.833 969.5,267.167 1023.5,213.5 Z"/></g>
<g><path style="opacity:0.022" fill="#43443f" d="M 1023.5,233.5 C 1023.5,235.167 1023.5,236.833 1023.5,238.5C 971.833,289.833 920.167,341.167 868.5,392.5C 868.167,391.167 867.833,389.833 867.5,388.5C 919.5,336.833 971.5,285.167 1023.5,233.5 Z"/></g>
<g><path style="opacity:0.022" fill="#43443f" d="M 1023.5,253.5 C 1023.5,255.167 1023.5,256.833 1023.5,258.5C 973.167,308.5 922.833,358.5 872.5,408.5C 872.5,407.167 872.5,405.833 872.5,404.5C 922.5,353.833 972.833,303.5 1023.5,253.5 Z"/></g>
<g><path style="opacity:0.022" fill="#444440" d="M 1023.5,273.5 C 1023.5,275.167 1023.5,276.833 1023.5,278.5C 974.167,327.5 924.833,376.5 875.5,425.5C 875.167,424.167 874.833,422.833 874.5,421.5C 875.167,421.5 875.5,421.167 875.5,420.5C 924.833,371.5 974.167,322.5 1023.5,273.5 Z"/></g>
<g><path style="opacity:1" fill="#ef4b4c" d="M 493.5,280.5 C 493.611,281.117 493.944,281.617 494.5,282C 407.965,368.701 321.299,455.201 234.5,541.5C 231.303,516.053 231.97,490.72 236.5,465.5C 253.467,392.571 294.8,338.571 360.5,303.5C 402.47,282.4 446.803,274.734 493.5,280.5 Z"/></g>
<g><path style="opacity:1" fill="#ee4b4d" d="M 493.5,280.5 C 537.919,286.287 577.252,303.287 611.5,331.5C 589.833,353.833 567.833,375.833 545.5,397.5C 491.388,362.734 437.388,362.901 383.5,398C 358.343,417.167 340.676,441.667 330.5,471.5C 299.833,501.833 269.167,532.167 238.5,562.5C 236.614,555.646 235.281,548.646 234.5,541.5C 321.299,455.201 407.965,368.701 494.5,282C 493.944,281.617 493.611,281.117 493.5,280.5 Z"/></g>
<g><path style="opacity:0.022" fill="#444440" d="M 111.5,285.5 C 108.86,289.816 106.194,294.149 103.5,298.5C 102.833,298.5 102.5,298.833 102.5,299.5C 101.833,299.5 101.5,299.833 101.5,300.5C 67.5,334.167 33.5,367.833 -0.5,401.5C -0.5,399.833 -0.5,398.167 -0.5,396.5C 36.8333,359.5 74.1667,322.5 111.5,285.5 Z"/></g>
<g><path style="opacity:0.022" fill="#43443f" d="M 1023.5,293.5 C 1023.5,295.167 1023.5,296.833 1023.5,298.5C 975.167,346.5 926.833,394.5 878.5,442.5C 878.5,441.167 878.5,439.833 878.5,438.5C 926.5,389.833 974.833,341.5 1023.5,293.5 Z"/></g>
<g><path style="opacity:0.999" fill="#ee4a4c" d="M 777.5,232.5 C 778.833,233.5 780.167,234.5 781.5,235.5C 781.833,236.5 782.5,237.167 783.5,237.5C 785.458,240.792 787.791,243.792 790.5,246.5C 790.833,247.5 791.5,248.167 792.5,248.5C 794.482,251.81 796.815,254.81 799.5,257.5C 799.427,259.027 800.094,260.027 801.5,260.5C 803.147,263.473 805.147,266.14 807.5,268.5C 807.427,270.027 808.094,271.027 809.5,271.5C 811.265,274.709 813.265,277.709 815.5,280.5C 815.932,281.71 816.599,282.71 817.5,283.5C 819.265,286.709 821.265,289.709 823.5,292.5C 823.66,294.153 824.326,295.486 825.5,296.5C 826.913,299.661 828.58,302.661 830.5,305.5C 830.932,306.71 831.599,307.71 832.5,308.5C 834.167,311.833 835.833,315.167 837.5,318.5C 837.932,319.71 838.599,320.71 839.5,321.5C 840.659,325.151 842.326,328.485 844.5,331.5C 844.66,333.153 845.326,334.486 846.5,335.5C 847.282,339.063 848.616,342.397 850.5,345.5C 850.66,347.153 851.326,348.486 852.5,349.5C 853.321,353.127 854.654,356.46 856.5,359.5C 856.433,360.959 856.766,362.292 857.5,363.5C 858.832,367.162 860.165,370.828 861.5,374.5C 861.5,374.833 861.5,375.167 861.5,375.5C 861.209,376.649 860.376,377.316 859,377.5C 831.57,385.198 804.07,392.698 776.5,400C 774.68,400.2 773.347,401.034 772.5,402.5C 772.167,402.5 771.833,402.5 771.5,402.5C 757.693,364.082 737.693,329.415 711.5,298.5C 733.167,276.167 755.167,254.167 777.5,232.5 Z"/></g>
<g><path style="opacity:0.022" fill="#44433f" d="M 1023.5,313.5 C 1023.5,315.167 1023.5,316.833 1023.5,318.5C 976.167,365.5 928.833,412.5 881.5,459.5C 880.766,458.292 880.433,456.959 880.5,455.5C 928.167,408.167 975.833,360.833 1023.5,313.5 Z"/></g>
<g><path style="opacity:1" fill="#eaedf7" d="M 711.5,298.5 C 737.693,329.415 757.693,364.082 771.5,402.5C 741.396,410.526 711.396,418.859 681.5,427.5C 681.5,427.167 681.5,426.833 681.5,426.5C 672.359,404.061 660.359,383.394 645.5,364.5C 667.167,342.167 689.167,320.167 711.5,298.5 Z"/></g>
<g><path style="opacity:0.022" fill="#43443f" d="M 85.5,331.5 C 84.4388,334.622 83.1054,337.622 81.5,340.5C 54.1667,367.5 26.8333,394.5 -0.5,421.5C -0.5,419.833 -0.5,418.167 -0.5,416.5C 28.1667,388.167 56.8333,359.833 85.5,331.5 Z"/></g>
<g><path style="opacity:0.022" fill="#43443f" d="M 1023.5,333.5 C 1023.5,335.167 1023.5,336.833 1023.5,338.5C 976.833,384.833 930.167,431.167 883.5,477.5C 882.566,476.432 882.232,475.099 882.5,473.5C 929.5,426.833 976.5,380.167 1023.5,333.5 Z"/></g>
<g><path style="opacity:0.022" fill="#444440" d="M 1023.5,353.5 C 1023.5,355.167 1023.5,356.833 1023.5,358.5C 977.167,404.5 930.833,450.5 884.5,496.5C 883.766,495.292 883.433,493.959 883.5,492.5C 930.167,446.167 976.833,399.833 1023.5,353.5 Z"/></g>
<g><path style="opacity:0.022" fill="#44433f" d="M 71.5,365.5 C 70.4986,368.172 69.4986,370.838 68.5,373.5C 45.5,396.167 22.5,418.833 -0.5,441.5C -0.5,439.833 -0.5,438.167 -0.5,436.5C 23.5,412.833 47.5,389.167 71.5,365.5 Z"/></g>
<g><path style="opacity:0.022" fill="#43443f" d="M 1023.5,373.5 C 1023.5,375.167 1023.5,376.833 1023.5,378.5C 977.167,424.5 930.833,470.5 884.5,516.5C 884.5,514.833 884.5,513.167 884.5,511.5C 930.833,465.5 977.167,419.5 1023.5,373.5 Z"/></g>
<g><path style="opacity:0.022" fill="#43443f" d="M 1023.5,393.5 C 1023.5,395.167 1023.5,396.833 1023.5,398.5C 976.833,444.833 930.167,491.167 883.5,537.5C 883.5,535.833 883.5,534.167 883.5,532.5C 930.167,486.167 976.833,439.833 1023.5,393.5 Z"/></g>
<g><path style="opacity:0.993" fill="#dd333f" d="M 861.5,375.5 C 862.5,376.167 863.5,376.833 864.5,377.5C 865.303,381.239 866.303,384.905 867.5,388.5C 867.833,389.833 868.167,391.167 868.5,392.5C 869.848,396.584 871.181,400.584 872.5,404.5C 872.5,405.833 872.5,407.167 872.5,408.5C 873.688,412.552 874.688,416.552 875.5,420.5C 875.5,421.167 875.167,421.5 874.5,421.5C 844.452,429.293 814.452,437.293 784.5,445.5C 784.5,444.833 784.167,444.5 783.5,444.5C 781.059,430.178 777.393,416.178 772.5,402.5C 773.347,401.034 774.68,400.2 776.5,400C 804.07,392.698 831.57,385.198 859,377.5C 860.376,377.316 861.209,376.649 861.5,375.5 Z"/></g>
<g><path style="opacity:0.022" fill="#43443f" d="M 61.5,395.5 C 61.233,397.965 60.5664,400.299 59.5,402.5C 39.5,422.167 19.5,441.833 -0.5,461.5C -0.5,459.833 -0.5,458.167 -0.5,456.5C 20.1667,436.167 40.8333,415.833 61.5,395.5 Z"/></g>
<g><path style="opacity:1" fill="#ee4b4d" d="M 645.5,364.5 C 660.359,383.394 672.359,404.061 681.5,426.5C 651.427,434.581 621.427,442.914 591.5,451.5C 587.665,444.492 583.331,437.826 578.5,431.5C 600.5,408.833 622.833,386.5 645.5,364.5 Z"/></g>
<g><path style="opacity:1" fill="#c3d5e3" d="M 771.5,402.5 C 771.833,402.5 772.167,402.5 772.5,402.5C 777.393,416.178 781.059,430.178 783.5,444.5C 783.53,445.497 783.03,446.164 782,446.5C 752.821,454.919 723.654,463.252 694.5,471.5C 693.833,471.5 693.167,471.5 692.5,471.5C 690.4,456.433 686.733,441.766 681.5,427.5C 711.396,418.859 741.396,410.526 771.5,402.5 Z"/></g>
<g><path style="opacity:0.022" fill="#44443f" d="M 1023.5,413.5 C 1023.5,415.167 1023.5,416.833 1023.5,418.5C 976.167,465.5 928.833,512.5 881.5,559.5C 881.517,557.435 881.85,555.435 882.5,553.5C 929.5,506.833 976.5,460.167 1023.5,413.5 Z"/></g>
<g><path style="opacity:0.022" fill="#43443f" d="M 54.5,422.5 C 54.6747,424.621 54.3414,426.621 53.5,428.5C 35.5,446.167 17.5,463.833 -0.5,481.5C -0.5,479.833 -0.5,478.167 -0.5,476.5C 17.8333,458.5 36.1667,440.5 54.5,422.5 Z"/></g>
<g><path style="opacity:1" fill="#dd333f" d="M 681.5,426.5 C 681.5,426.833 681.5,427.167 681.5,427.5C 686.733,441.766 690.4,456.433 692.5,471.5C 663.519,480.599 634.186,488.932 604.5,496.5C 602.704,481.133 598.37,466.799 591.5,453.5C 591.5,452.833 591.5,452.167 591.5,451.5C 621.427,442.914 651.427,434.581 681.5,426.5 Z"/></g>
<g><path style="opacity:0.022" fill="#43443f" d="M 1023.5,433.5 C 1023.5,435.167 1023.5,436.833 1023.5,438.5C 975.167,486.5 926.833,534.5 878.5,582.5C 878.517,580.435 878.85,578.435 879.5,576.5C 927.5,528.833 975.5,481.167 1023.5,433.5 Z"/></g>
<g><path style="opacity:1" fill="#eaecf6" d="M 578.5,431.5 C 583.331,437.826 587.665,444.492 591.5,451.5C 591.5,452.167 591.5,452.833 591.5,453.5C 575.606,457.819 559.606,462.153 543.5,466.5C 554.833,454.5 566.5,442.833 578.5,431.5 Z"/></g>
<g><path style="opacity:1" fill="#eaedf7" d="M 484.5,186.5 C 481.15,186.335 477.817,186.502 474.5,187C 435.833,225.667 397.167,264.333 358.5,303C 359.094,303.464 359.761,303.631 360.5,303.5C 294.8,338.571 253.467,392.571 236.5,465.5C 204.783,496.216 173.783,527.55 143.5,559.5C 133.316,494.983 141.983,432.983 169.5,373.5C 210.126,291.204 273.459,234.204 359.5,202.5C 400.288,189.251 441.954,183.918 484.5,186.5 Z"/></g>
<g><path style="opacity:0.996" fill="#ee4a4c" d="M 874.5,421.5 C 874.833,422.833 875.167,424.167 875.5,425.5C 876.392,429.975 877.392,434.308 878.5,438.5C 878.5,439.833 878.5,441.167 878.5,442.5C 879.49,446.772 880.156,451.106 880.5,455.5C 880.433,456.959 880.766,458.292 881.5,459.5C 881.833,464.167 882.167,468.833 882.5,473.5C 882.232,475.099 882.566,476.432 883.5,477.5C 883.5,482.5 883.5,487.5 883.5,492.5C 883.433,493.959 883.766,495.292 884.5,496.5C 884.5,501.5 884.5,506.5 884.5,511.5C 884.5,513.167 884.5,514.833 884.5,516.5C 884.608,521.87 884.275,527.203 883.5,532.5C 883.5,534.167 883.5,535.833 883.5,537.5C 883.167,542.833 882.833,548.167 882.5,553.5C 881.85,555.435 881.517,557.435 881.5,559.5C 881.5,560.5 881.5,561.5 881.5,562.5C 880.883,562.389 880.383,562.056 880,561.5C 757.965,683.368 636.132,805.368 514.5,927.5C 514.158,928.338 513.492,928.672 512.5,928.5C 510.833,928.5 509.167,928.5 507.5,928.5C 501.817,929.112 496.15,929.779 490.5,930.5C 488.833,930.5 487.167,930.5 485.5,930.5C 480.5,930.5 475.5,930.5 470.5,930.5C 468.833,930.5 467.167,930.5 465.5,930.5C 460.5,930.5 455.5,930.5 450.5,930.5C 448.833,930.5 447.167,930.5 445.5,930.5C 440.819,930.331 436.152,929.998 431.5,929.5C 429.833,929.5 428.167,929.5 426.5,929.5C 422.167,928.833 417.833,928.167 413.5,927.5C 411.833,927.5 410.167,927.5 408.5,927.5C 404.261,926.465 399.928,925.799 395.5,925.5C 394.292,924.766 392.959,924.433 391.5,924.5C 387.21,923.575 382.876,922.909 378.5,922.5C 377.432,921.566 376.099,921.232 374.5,921.5C 370.6,920.192 366.6,919.192 362.5,918.5C 361.292,917.766 359.959,917.433 358.5,917.5C 354.6,916.192 350.6,915.192 346.5,914.5C 345.791,913.596 344.791,913.263 343.5,913.5C 343.5,913.167 343.5,912.833 343.5,912.5C 369.833,886.833 395.833,860.833 421.5,834.5C 550.154,846.902 653.32,801.902 731,699.5C 783.486,622.288 801.319,537.622 784.5,445.5C 814.452,437.293 844.452,429.293 874.5,421.5 Z"/></g>
<g><path style="opacity:0.022" fill="#43443f" d="M 50.5,446.5 C 50.4828,448.565 50.1495,450.565 49.5,452.5C 32.8333,468.833 16.1667,485.167 -0.5,501.5C -0.5,499.833 -0.5,498.167 -0.5,496.5C 16.5,479.833 33.5,463.167 50.5,446.5 Z"/></g>
<g><path style="opacity:0.022" fill="#43443f" d="M 1023.5,453.5 C 1023.5,455.167 1023.5,456.833 1023.5,458.5C 973.5,508.167 923.5,557.833 873.5,607.5C 873.833,605.5 874.167,603.5 874.5,601.5C 875.167,601.5 875.5,601.167 875.5,600.5C 924.833,551.5 974.167,502.5 1023.5,453.5 Z"/></g>
<g><path style="opacity:1" fill="#c3d5e3" d="M 591.5,453.5 C 598.37,466.799 602.704,481.133 604.5,496.5C 604.5,499.833 604.5,503.167 604.5,506.5C 603.527,504.052 603.194,501.385 603.5,498.5C 580.268,503.724 557.268,509.724 534.5,516.5C 534.982,504.391 532.982,492.725 528.5,481.5C 533.167,476.167 538.167,471.167 543.5,466.5C 559.606,462.153 575.606,457.819 591.5,453.5 Z"/></g>
<g><path style="opacity:0.022" fill="#43443f" d="M 47.5,469.5 C 47.5,471.167 47.5,472.833 47.5,474.5C 31.5,490.167 15.5,505.833 -0.5,521.5C -0.5,519.833 -0.5,518.167 -0.5,516.5C 15.5,500.833 31.5,485.167 47.5,469.5 Z"/></g>
<g><path style="opacity:0.022" fill="#43443f" d="M 1023.5,473.5 C 1023.5,475.167 1023.5,476.833 1023.5,478.5C 971.167,530.5 918.833,582.5 866.5,634.5C 866.767,632.035 867.434,629.701 868.5,627.5C 920.167,576.167 971.833,524.833 1023.5,473.5 Z"/></g>
<g><path style="opacity:0.022" fill="#43443f" d="M 46.5,490.5 C 45.962,492.117 45.6287,493.784 45.5,495.5C 45.5,495.833 45.5,496.167 45.5,496.5C 30.1667,511.5 14.8333,526.5 -0.5,541.5C -0.5,539.833 -0.5,538.167 -0.5,536.5C 15.1667,521.167 30.8333,505.833 46.5,490.5 Z"/></g>
<g><path style="opacity:0.022" fill="#44433f" d="M 1023.5,493.5 C 1023.5,495.167 1023.5,496.833 1023.5,498.5C 967.5,554.167 911.5,609.833 855.5,665.5C 856.108,662.673 857.108,660.007 858.5,657.5C 913.5,602.833 968.5,548.167 1023.5,493.5 Z"/></g>
<g><path style="opacity:0.022" fill="#43443f" d="M 45.5,511.5 C 45.5,513.167 45.5,514.833 45.5,516.5C 30.1667,531.5 14.8333,546.5 -0.5,561.5C -0.5,559.833 -0.5,558.167 -0.5,556.5C 14.8333,541.5 30.1667,526.5 45.5,511.5 Z"/></g>
<g><path style="opacity:1" fill="#eaedf7" d="M 783.5,444.5 C 784.167,444.5 784.5,444.833 784.5,445.5C 801.319,537.622 783.486,622.288 731,699.5C 653.32,801.902 550.154,846.902 421.5,834.5C 419.585,834.784 417.919,834.451 416.5,833.5C 418.857,833.663 421.19,833.497 423.5,833C 454.5,802 485.5,771 516.5,740C 515.207,739.51 513.873,739.343 512.5,739.5C 586.229,721.598 640.396,678.931 675,611.5C 693.18,571.754 700.347,530.087 696.5,486.5C 695.915,481.485 695.248,476.485 694.5,471.5C 723.654,463.252 752.821,454.919 782,446.5C 783.03,446.164 783.53,445.497 783.5,444.5 Z"/></g>
<g><path style="opacity:0.022" fill="#43443f" d="M 1023.5,513.5 C 1023.5,515.167 1023.5,516.833 1023.5,518.5C 962.167,579.5 900.833,640.5 839.5,701.5C 840.561,698.378 841.895,695.378 843.5,692.5C 844.167,692.5 844.5,692.167 844.5,691.5C 904.167,632.167 963.833,572.833 1023.5,513.5 Z"/></g>
<g><path style="opacity:0.022" fill="#43443f" d="M 45.5,530.5 C 46.4511,531.919 46.7845,533.585 46.5,535.5C 30.8333,550.833 15.1667,566.167 -0.5,581.5C -0.5,579.833 -0.5,578.167 -0.5,576.5C 15.1667,561.5 30.5,546.167 45.5,530.5 Z"/></g>
<g><path style="opacity:1" fill="#ee4b4d" d="M 494.5,447.5 C 494.631,448.239 494.464,448.906 494,449.5C 477.304,465.862 460.971,482.528 445,499.5C 439.284,510.386 440.784,520.053 449.5,528.5C 451.713,530.86 454.379,532.694 457.5,534C 463.204,534.687 468.87,534.521 474.5,533.5C 494.449,527.961 514.449,522.628 534.5,517.5C 526.964,561.192 500.964,582.359 456.5,581C 425.733,575.9 405.9,558.4 397,528.5C 390.289,484.921 407.789,456.421 449.5,443C 464.941,440.152 479.941,441.652 494.5,447.5 Z"/></g>
<g><path style="opacity:0.022" fill="#43443f" d="M 1023.5,533.5 C 1023.5,535.167 1023.5,536.833 1023.5,538.5C 952.5,609.167 881.5,679.833 810.5,750.5C 812.905,746.027 815.571,741.694 818.5,737.5C 819.167,737.5 819.5,737.167 819.5,736.5C 820.167,736.5 820.5,736.167 820.5,735.5C 888.167,668.167 955.833,600.833 1023.5,533.5 Z"/></g>
<g><path style="opacity:0.998" fill="#ee4a4c" d="M 169.5,373.5 C 141.983,432.983 133.316,494.983 143.5,559.5C 161.833,666.964 218.5,747.131 313.5,800C 346.013,816.894 380.346,828.06 416.5,833.5C 417.919,834.451 419.585,834.784 421.5,834.5C 395.833,860.833 369.833,886.833 343.5,912.5C 339.397,911.91 335.397,910.91 331.5,909.5C 330.292,908.766 328.959,908.433 327.5,908.5C 324.203,906.399 320.537,905.065 316.5,904.5C 315.71,903.599 314.71,902.932 313.5,902.5C 309.725,901.445 306.058,900.112 302.5,898.5C 301.609,897.89 300.609,897.557 299.5,897.5C 296.744,895.796 293.744,894.463 290.5,893.5C 277.736,886.95 265.069,880.116 252.5,873C 240.661,865.311 228.995,857.478 217.5,849.5C 215.938,849.267 214.605,848.6 213.5,847.5C 212.71,846.599 211.71,845.932 210.5,845.5C 208.14,843.147 205.473,841.147 202.5,839.5C 201.833,838.167 200.833,837.167 199.5,836.5C 197.122,834.122 194.455,832.122 191.5,830.5C 190.833,829.167 189.833,828.167 188.5,827.5C 186.249,824.705 183.582,822.372 180.5,820.5C 180.167,819.5 179.5,818.833 178.5,818.5C 176.167,815.5 173.5,812.833 170.5,810.5C 170.167,809.5 169.5,808.833 168.5,808.5C 166.167,805.5 163.5,802.833 160.5,800.5C 160.167,799.5 159.5,798.833 158.5,798.5C 156.138,795.808 153.804,793.141 151.5,790.5C 150.833,789.167 149.833,788.167 148.5,787.5C 146.628,784.418 144.295,781.751 141.5,779.5C 141.068,778.29 140.401,777.29 139.5,776.5C 137.5,773.833 135.5,771.167 133.5,768.5C 132.833,767.167 131.833,766.167 130.5,765.5C 128.853,762.527 126.853,759.86 124.5,757.5C 124.573,755.973 123.906,754.973 122.5,754.5C 120.748,751.328 118.748,748.328 116.5,745.5C 116.068,744.29 115.401,743.29 114.5,742.5C 112.735,739.291 110.735,736.291 108.5,733.5C 108.573,731.973 107.906,730.973 106.5,730.5C 105,726.827 103,723.494 100.5,720.5C 100.443,719.391 100.11,718.391 99.5,717.5C 97.4854,714.131 95.4854,710.798 93.5,707.5C 93.4431,706.391 93.1098,705.391 92.5,704.5C 90.8333,701.167 89.1667,697.833 87.5,694.5C 87.0679,693.29 86.4013,692.29 85.5,691.5C 84.0698,687.646 82.4031,683.979 80.5,680.5C 80.4431,679.391 80.1098,678.391 79.5,677.5C 78.0722,673.65 76.4056,669.983 74.5,666.5C 74.7373,665.209 74.404,664.209 73.5,663.5C 72.4422,659.721 71.1089,656.054 69.5,652.5C 69.1667,651.167 68.8333,649.833 68.5,648.5C 67.1667,644.833 65.8333,641.167 64.5,637.5C 64.5674,636.041 64.2341,634.708 63.5,633.5C 62.4582,629.303 61.1249,625.303 59.5,621.5C 59.7678,619.901 59.4345,618.568 58.5,617.5C 57.8333,613.5 57.1667,609.5 56.5,605.5C 55.7659,604.292 55.4326,602.959 55.5,601.5C 54.5,597.5 53.5,593.5 52.5,589.5C 52.7678,587.901 52.4345,586.568 51.5,585.5C 51.3755,580.951 50.7089,576.618 49.5,572.5C 49.5,570.833 49.5,569.167 49.5,567.5C 48.7524,563.188 48.0857,558.854 47.5,554.5C 47.5,552.833 47.5,551.167 47.5,549.5C 46.6864,544.881 46.3531,540.214 46.5,535.5C 46.7845,533.585 46.4511,531.919 45.5,530.5C 45.5,525.833 45.5,521.167 45.5,516.5C 45.5,514.833 45.5,513.167 45.5,511.5C 45.5,506.5 45.5,501.5 45.5,496.5C 45.5,496.167 45.5,495.833 45.5,495.5C 86.7987,454.701 127.965,413.701 169,372.5C 169.399,372.728 169.565,373.062 169.5,373.5 Z"/></g>
<g><path style="opacity:0.022" fill="#43443f" d="M 47.5,549.5 C 47.5,551.167 47.5,552.833 47.5,554.5C 31.5,570.167 15.5,585.833 -0.5,601.5C -0.5,599.833 -0.5,598.167 -0.5,596.5C 15.5,580.833 31.5,565.167 47.5,549.5 Z"/></g>
<g><path style="opacity:1" fill="#eaedf7" d="M 545.5,397.5 C 529.116,414.885 512.116,431.552 494.5,447.5C 479.941,441.652 464.941,440.152 449.5,443C 407.789,456.421 390.289,484.921 397,528.5C 405.9,558.4 425.733,575.9 456.5,581C 500.964,582.359 526.964,561.192 534.5,517.5C 534.5,517.167 534.5,516.833 534.5,516.5C 557.268,509.724 580.268,503.724 603.5,498.5C 603.194,501.385 603.527,504.052 604.5,506.5C 604.552,561.245 581.552,603.079 535.5,632C 478.704,661.688 425.037,657.021 374.5,618C 331.497,577.814 316.831,528.981 330.5,471.5C 340.676,441.667 358.343,417.167 383.5,398C 437.388,362.901 491.388,362.734 545.5,397.5 Z"/></g>
<g><path style="opacity:0.022" fill="#43443f" d="M 1023.5,553.5 C 1023.5,555.167 1023.5,556.833 1023.5,558.5C 921.833,659.833 820.167,761.167 718.5,862.5C 717.89,861.609 717.557,860.609 717.5,859.5C 819.167,757.167 921.167,655.167 1023.5,553.5 Z"/></g>
<g><path style="opacity:0.022" fill="#43443f" d="M 49.5,567.5 C 49.5,569.167 49.5,570.833 49.5,572.5C 32.8333,588.833 16.1667,605.167 -0.5,621.5C -0.5,619.833 -0.5,618.167 -0.5,616.5C 16.1667,600.167 32.8333,583.833 49.5,567.5 Z"/></g>
<g><path style="opacity:0.022" fill="#44443f" d="M 1023.5,573.5 C 1023.5,575.167 1023.5,576.833 1023.5,578.5C 923.833,677.833 824.167,777.167 724.5,876.5C 724.5,875.833 724.167,875.5 723.5,875.5C 723.5,874.5 723.5,873.5 723.5,872.5C 823.5,772.833 923.5,673.167 1023.5,573.5 Z"/></g>
<g><path style="opacity:1" fill="#ee4b4d" d="M 696.5,486.5 C 700.347,530.087 693.18,571.754 675,611.5C 640.396,678.931 586.229,721.598 512.5,739.5C 496.006,742.667 479.339,744.334 462.5,744.5C 454.624,744.526 446.957,743.859 439.5,742.5C 524.549,656.451 610.215,571.118 696.5,486.5 Z"/></g>
<g><path style="opacity:0.022" fill="#43443f" d="M 51.5,585.5 C 52.4345,586.568 52.7678,587.901 52.5,589.5C 34.8333,606.833 17.1667,624.167 -0.5,641.5C -0.5,639.833 -0.5,638.167 -0.5,636.5C 16.8333,619.5 34.1667,602.5 51.5,585.5 Z"/></g>
<g><path style="opacity:0.022" fill="#43443f" d="M 1023.5,593.5 C 1023.5,595.167 1023.5,596.833 1023.5,598.5C 925.833,695.5 828.5,792.833 731.5,890.5C 730.326,889.486 729.66,888.153 729.5,886.5C 827.5,788.833 925.5,691.167 1023.5,593.5 Z"/></g>
<g><path style="opacity:0.022" fill="#444440" d="M 55.5,601.5 C 55.4326,602.959 55.7659,604.292 56.5,605.5C 37.5,624.167 18.5,642.833 -0.5,661.5C -0.5,659.833 -0.5,658.167 -0.5,656.5C 18.1667,638.167 36.8333,619.833 55.5,601.5 Z"/></g>
<g><path style="opacity:0.997" fill="#ee4a4c" d="M 881.5,562.5 C 880.74,567.15 880.074,571.817 879.5,576.5C 878.85,578.435 878.517,580.435 878.5,582.5C 877.244,588.449 876.244,594.449 875.5,600.5C 874.833,600.5 874.5,600.833 874.5,601.5C 874.167,603.5 873.833,605.5 873.5,607.5C 871.833,614.167 870.166,620.834 868.5,627.5C 867.434,629.701 866.767,632.035 866.5,634.5C 863.835,642.162 861.168,649.828 858.5,657.5C 857.108,660.007 856.108,662.673 855.5,665.5C 851.835,674.162 848.168,682.828 844.5,691.5C 843.833,691.5 843.5,691.833 843.5,692.5C 841.895,695.378 840.561,698.378 839.5,701.5C 833.155,712.861 826.821,724.194 820.5,735.5C 819.833,735.5 819.5,735.833 819.5,736.5C 818.833,736.5 818.5,736.833 818.5,737.5C 815.571,741.694 812.905,746.027 810.5,750.5C 785.531,785.307 756.197,816.14 722.5,843C 719.28,845.437 715.947,847.603 712.5,849.5C 689.531,864.661 665.531,878.327 640.5,890.5C 639.614,891.325 639.281,892.325 639.5,893.5C 632.38,896.227 625.38,899.227 618.5,902.5C 616.079,902.878 613.746,903.545 611.5,904.5C 610.833,904.5 610.5,904.833 610.5,905.5C 603.178,907.829 595.845,910.163 588.5,912.5C 586.167,913.167 583.833,913.833 581.5,914.5C 580.833,914.5 580.5,914.833 580.5,915.5C 573.655,916.545 566.989,918.211 560.5,920.5C 558.379,920.325 556.379,920.659 554.5,921.5C 548.086,922.583 541.752,923.916 535.5,925.5C 533.833,925.5 532.167,925.5 530.5,925.5C 529.833,925.5 529.5,925.833 529.5,926.5C 524.507,926.916 519.507,927.249 514.5,927.5C 636.132,805.368 757.965,683.368 880,561.5C 880.383,562.056 880.883,562.389 881.5,562.5 Z"/></g>
<g><path style="opacity:0.022" fill="#43443f" d="M 1023.5,613.5 C 1023.5,615.167 1023.5,616.833 1023.5,618.5C 928.167,713.5 832.833,808.5 737.5,903.5C 736.599,902.71 735.932,901.71 735.5,900.5C 831.5,804.833 927.5,709.167 1023.5,613.5 Z"/></g>
<g><path style="opacity:0.022" fill="#43443f" d="M 58.5,617.5 C 59.4345,618.568 59.7678,619.901 59.5,621.5C 39.8333,641.833 19.8333,661.833 -0.5,681.5C -0.5,679.833 -0.5,678.167 -0.5,676.5C 19.5,657.167 39.1667,637.5 58.5,617.5 Z"/></g>
<g><path style="opacity:0.022" fill="#444440" d="M 63.5,633.5 C 64.2341,634.708 64.5674,636.041 64.5,637.5C 42.8333,658.833 21.1667,680.167 -0.5,701.5C -0.5,699.833 -0.5,698.167 -0.5,696.5C 20.8333,675.5 42.1667,654.5 63.5,633.5 Z"/></g>
<g><path style="opacity:0.022" fill="#44433f" d="M 1023.5,633.5 C 1023.5,635.167 1023.5,636.833 1023.5,638.5C 930.167,731.5 836.833,824.5 743.5,917.5C 742.596,916.791 742.263,915.791 742.5,914.5C 835.833,820.5 929.5,726.833 1023.5,633.5 Z"/></g>
<g><path style="opacity:1" fill="#ee4b4d" d="M 330.5,471.5 C 316.831,528.981 331.497,577.814 374.5,618C 425.037,657.021 478.704,661.688 535.5,632C 581.552,603.079 604.552,561.245 604.5,506.5C 604.5,503.167 604.5,499.833 604.5,496.5C 634.186,488.932 663.519,480.599 692.5,471.5C 693.167,471.5 693.833,471.5 694.5,471.5C 695.248,476.485 695.915,481.485 696.5,486.5C 610.215,571.118 524.549,656.451 439.5,742.5C 360.574,731.643 301.074,691.976 261,623.5C 250.429,604.286 242.929,583.953 238.5,562.5C 269.167,532.167 299.833,501.833 330.5,471.5 Z"/></g>
<g><path style="opacity:1" fill="#dc333f" d="M 528.5,481.5 C 532.982,492.725 534.982,504.391 534.5,516.5C 534.5,516.833 534.5,517.167 534.5,517.5C 514.449,522.628 494.449,527.961 474.5,533.5C 492.777,516.558 510.777,499.225 528.5,481.5 Z"/></g>
<g><path style="opacity:0.022" fill="#43443f" d="M 68.5,648.5 C 68.8333,649.833 69.1667,651.167 69.5,652.5C 46.1667,675.5 22.8333,698.5 -0.5,721.5C -0.5,719.833 -0.5,718.167 -0.5,716.5C 22.5,693.833 45.5,671.167 68.5,648.5 Z"/></g>
<g><path style="opacity:0.022" fill="#43443f" d="M 1023.5,653.5 C 1023.5,655.167 1023.5,656.833 1023.5,658.5C 932.167,749.5 840.833,840.5 749.5,931.5C 748.89,930.609 748.557,929.609 748.5,928.5C 839.833,836.5 931.5,744.833 1023.5,653.5 Z"/></g>
<g><path style="opacity:0.022" fill="#43443f" d="M 73.5,663.5 C 74.404,664.209 74.7373,665.209 74.5,666.5C 49.8333,691.833 24.8333,716.833 -0.5,741.5C -0.5,739.833 -0.5,738.167 -0.5,736.5C 24.1667,712.167 48.8333,687.833 73.5,663.5 Z"/></g>
<g><path style="opacity:0.022" fill="#43443f" d="M 1023.5,673.5 C 1023.5,675.167 1023.5,676.833 1023.5,678.5C 934.167,767.167 845.167,856.167 756.5,945.5C 755.326,944.486 754.66,943.153 754.5,941.5C 844.167,852.167 933.833,762.833 1023.5,673.5 Z"/></g>
<g><path style="opacity:0.022" fill="#43443f" d="M 79.5,677.5 C 80.1098,678.391 80.4431,679.391 80.5,680.5C 53.8333,707.833 26.8333,734.833 -0.5,761.5C -0.5,759.833 -0.5,758.167 -0.5,756.5C 26.1667,730.167 52.8333,703.833 79.5,677.5 Z"/></g>
<g><path style="opacity:0.022" fill="#43443f" d="M 85.5,691.5 C 86.4013,692.29 87.0679,693.29 87.5,694.5C 58.1667,723.5 28.8333,752.5 -0.5,781.5C -0.5,779.833 -0.5,778.167 -0.5,776.5C 28.1667,748.167 56.8333,719.833 85.5,691.5 Z"/></g>
<g><path style="opacity:0.022" fill="#44443f" d="M 1023.5,693.5 C 1023.5,695.167 1023.5,696.833 1023.5,698.5C 936.167,785.167 849.167,872.167 762.5,959.5C 761.326,958.486 760.66,957.153 760.5,955.5C 848.167,868.167 935.833,780.833 1023.5,693.5 Z"/></g>
<g><path style="opacity:0.022" fill="#43443f" d="M 92.5,704.5 C 93.1098,705.391 93.4431,706.391 93.5,707.5C 62.5,739.167 31.1667,770.5 -0.5,801.5C -0.5,799.833 -0.5,798.167 -0.5,796.5C 30.5,765.833 61.5,735.167 92.5,704.5 Z"/></g>
<g><path style="opacity:0.022" fill="#43443f" d="M 1023.5,713.5 C 1023.5,715.167 1023.5,716.833 1023.5,718.5C 938.167,803.5 852.833,888.5 767.5,973.5C 767.167,972.167 766.833,970.833 766.5,969.5C 852.167,884.167 937.833,798.833 1023.5,713.5 Z"/></g>
<g><path style="opacity:0.022" fill="#43443f" d="M 99.5,717.5 C 100.11,718.391 100.443,719.391 100.5,720.5C 67.1667,754.5 33.5,788.167 -0.5,821.5C -0.5,819.833 -0.5,818.167 -0.5,816.5C 32.8333,783.5 66.1667,750.5 99.5,717.5 Z"/></g>
<g><path style="opacity:1" fill="#ebedf7" d="M 236.5,465.5 C 231.97,490.72 231.303,516.053 234.5,541.5C 235.281,548.646 236.614,555.646 238.5,562.5C 242.929,583.953 250.429,604.286 261,623.5C 301.074,691.976 360.574,731.643 439.5,742.5C 446.957,743.859 454.624,744.526 462.5,744.5C 479.339,744.334 496.006,742.667 512.5,739.5C 513.873,739.343 515.207,739.51 516.5,740C 485.5,771 454.5,802 423.5,833C 421.19,833.497 418.857,833.663 416.5,833.5C 380.346,828.06 346.013,816.894 313.5,800C 218.5,747.131 161.833,666.964 143.5,559.5C 173.783,527.55 204.783,496.216 236.5,465.5 Z"/></g>
<g><path style="opacity:0.022" fill="#44433f" d="M 106.5,730.5 C 107.906,730.973 108.573,731.973 108.5,733.5C 72.1667,769.5 35.8333,805.5 -0.5,841.5C -0.5,839.833 -0.5,838.167 -0.5,836.5C 35.1667,801.167 70.8333,765.833 106.5,730.5 Z"/></g>
<g><path style="opacity:0.022" fill="#43443f" d="M 1023.5,733.5 C 1023.5,735.167 1023.5,736.833 1023.5,738.5C 937.833,823.833 852.167,909.167 766.5,994.5C 767.15,992.565 767.483,990.565 767.5,988.5C 852.833,903.5 938.167,818.5 1023.5,733.5 Z"/></g>
<g><path style="opacity:0.022" fill="#43443f" d="M 114.5,742.5 C 115.401,743.29 116.068,744.29 116.5,745.5C 77.5,784.167 38.5,822.833 -0.5,861.5C -0.5,859.833 -0.5,858.167 -0.5,856.5C 37.8333,818.5 76.1667,780.5 114.5,742.5 Z"/></g>
<g><path style="opacity:0.022" fill="#43443f" d="M 1023.5,753.5 C 1023.5,755.167 1023.5,756.833 1023.5,758.5C 934.833,846.5 846.5,934.833 758.5,1023.5C 756.833,1023.5 755.167,1023.5 753.5,1023.5C 843.167,933.167 933.167,843.167 1023.5,753.5 Z"/></g>
<g><path style="opacity:0.022" fill="#44433f" d="M 122.5,754.5 C 123.906,754.973 124.573,755.973 124.5,757.5C 82.8333,798.833 41.1667,840.167 -0.5,881.5C -0.5,879.833 -0.5,878.167 -0.5,876.5C 40.5,835.833 81.5,795.167 122.5,754.5 Z"/></g>
<g><path style="opacity:0.022" fill="#444440" d="M 130.5,765.5 C 131.833,766.167 132.833,767.167 133.5,768.5C 88.8333,812.833 44.1667,857.167 -0.5,901.5C -0.5,899.833 -0.5,898.167 -0.5,896.5C 43.5,853.167 87.1667,809.5 130.5,765.5 Z"/></g>
<g><path style="opacity:0.022" fill="#43443f" d="M 1023.5,773.5 C 1023.5,775.167 1023.5,776.833 1023.5,778.5C 941.5,859.833 859.833,941.5 778.5,1023.5C 776.833,1023.5 775.167,1023.5 773.5,1023.5C 856.5,939.833 939.833,856.5 1023.5,773.5 Z"/></g>
<g><path style="opacity:0.022" fill="#43443f" d="M 139.5,776.5 C 140.401,777.29 141.068,778.29 141.5,779.5C 94.5,827.167 47.1667,874.5 -0.5,921.5C -0.5,919.833 -0.5,918.167 -0.5,916.5C 46.5,870.167 93.1667,823.5 139.5,776.5 Z"/></g>
<g><path style="opacity:0.022" fill="#43443f" d="M 148.5,787.5 C 149.833,788.167 150.833,789.167 151.5,790.5C 100.833,840.833 50.1667,891.167 -0.5,941.5C -0.5,939.833 -0.5,938.167 -0.5,936.5C 49.5,887.167 99.1667,837.5 148.5,787.5 Z"/></g>
<g><path style="opacity:0.022" fill="#43443f" d="M 1023.5,793.5 C 1023.5,795.167 1023.5,796.833 1023.5,798.5C 948.167,873.167 873.167,948.167 798.5,1023.5C 796.833,1023.5 795.167,1023.5 793.5,1023.5C 869.833,946.5 946.5,869.833 1023.5,793.5 Z"/></g>
<g><path style="opacity:0.022" fill="#43443f" d="M 158.5,798.5 C 159.5,798.833 160.167,799.5 160.5,800.5C 107.167,854.5 53.5,908.167 -0.5,961.5C -0.5,959.833 -0.5,958.167 -0.5,956.5C 52.5,903.833 105.5,851.167 158.5,798.5 Z"/></g>
<g><path style="opacity:0.022" fill="#43443f" d="M 168.5,808.5 C 169.5,808.833 170.167,809.5 170.5,810.5C 113.833,867.833 56.8333,924.833 -0.5,981.5C -0.5,979.833 -0.5,978.167 -0.5,976.5C 55.8333,920.5 112.167,864.5 168.5,808.5 Z"/></g>
<g><path style="opacity:0.022" fill="#43443f" d="M 1023.5,813.5 C 1023.5,815.167 1023.5,816.833 1023.5,818.5C 954.833,886.5 886.5,954.833 818.5,1023.5C 816.833,1023.5 815.167,1023.5 813.5,1023.5C 883.167,953.167 953.167,883.167 1023.5,813.5 Z"/></g>
<g><path style="opacity:0.022" fill="#43443f" d="M 178.5,818.5 C 179.5,818.833 180.167,819.5 180.5,820.5C 120.5,881.167 60.1667,941.5 -0.5,1001.5C -0.5,999.833 -0.5,998.167 -0.5,996.5C 59.1667,937.167 118.833,877.833 178.5,818.5 Z"/></g>
<g><path style="opacity:0.022" fill="#43443f" d="M 188.5,827.5 C 189.833,828.167 190.833,829.167 191.5,830.5C 127.5,894.167 63.5,957.833 -0.5,1021.5C -0.5,1019.83 -0.5,1018.17 -0.5,1016.5C 62.8333,953.833 125.833,890.833 188.5,827.5 Z"/></g>
<g><path style="opacity:0.022" fill="#43443f" d="M 1023.5,833.5 C 1023.5,835.167 1023.5,836.833 1023.5,838.5C 961.5,899.833 899.833,961.5 838.5,1023.5C 836.833,1023.5 835.167,1023.5 833.5,1023.5C 896.5,959.833 959.833,896.5 1023.5,833.5 Z"/></g>
<g><path style="opacity:0.022" fill="#43443f" d="M 199.5,836.5 C 200.833,837.167 201.833,838.167 202.5,839.5C 140.833,900.5 79.5,961.833 18.5,1023.5C 16.8333,1023.5 15.1667,1023.5 13.5,1023.5C 75.5,961.167 137.5,898.833 199.5,836.5 Z"/></g>
<g><path style="opacity:0.022" fill="#44433f" d="M 210.5,845.5 C 211.71,845.932 212.71,846.599 213.5,847.5C 155.167,906.167 96.8333,964.833 38.5,1023.5C 36.8333,1023.5 35.1667,1023.5 33.5,1023.5C 92.5,964.167 151.5,904.833 210.5,845.5 Z"/></g>
<g><path style="opacity:0.022" fill="#43443f" d="M 1023.5,853.5 C 1023.5,855.167 1023.5,856.833 1023.5,858.5C 968.167,913.167 913.167,968.167 858.5,1023.5C 856.833,1023.5 855.167,1023.5 853.5,1023.5C 909.833,966.5 966.5,909.833 1023.5,853.5 Z"/></g>
<g><path style="opacity:0.022" fill="#43443f" d="M 208.5,868.5 C 207.439,871.622 206.105,874.622 204.5,877.5C 155.5,925.833 106.833,974.5 58.5,1023.5C 56.8333,1023.5 55.1667,1023.5 53.5,1023.5C 104.833,971.5 156.5,919.833 208.5,868.5 Z"/></g>
<g><path style="opacity:0.022" fill="#43443f" d="M 1023.5,873.5 C 1023.5,875.167 1023.5,876.833 1023.5,878.5C 974.833,926.5 926.5,974.833 878.5,1023.5C 876.833,1023.5 875.167,1023.5 873.5,1023.5C 923.167,973.167 973.167,923.167 1023.5,873.5 Z"/></g>
<g><path style="opacity:0.995" fill="#af6227" d="M 208.5,868.5 C 218.322,877.814 228.656,886.647 239.5,895C 246.748,902.484 248.248,910.984 244,920.5C 235.607,939.619 226.941,958.619 218,977.5C 208.257,992.709 194.257,1000.38 176,1000.5C 172.302,1000.69 168.802,1000.02 165.5,998.5C 164.893,998.624 164.56,998.957 164.5,999.5C 163.833,999.5 163.5,999.167 163.5,998.5C 163.567,997.041 163.234,995.708 162.5,994.5C 162.002,989.848 161.669,985.181 161.5,980.5C 162.167,980.5 162.5,980.167 162.5,979.5C 162.5,977.833 162.5,976.167 162.5,974.5C 164.937,966.291 167.937,958.291 171.5,950.5C 172.167,950.5 172.5,950.167 172.5,949.5C 173.499,946.838 174.499,944.172 175.5,941.5C 179.887,932.672 183.887,923.672 187.5,914.5C 188.167,914.5 188.5,914.167 188.5,913.5C 190.105,910.622 191.439,907.622 192.5,904.5C 196.772,895.622 200.772,886.622 204.5,877.5C 206.105,874.622 207.439,871.622 208.5,868.5 Z"/></g>
<g><path style="opacity:0.022" fill="#43443f" d="M 1023.5,893.5 C 1023.5,895.167 1023.5,896.833 1023.5,898.5C 981.5,939.833 939.833,981.5 898.5,1023.5C 896.833,1023.5 895.167,1023.5 893.5,1023.5C 936.5,979.833 979.833,936.5 1023.5,893.5 Z"/></g>
<g><path style="opacity:0.022" fill="#43443f" d="M 640.5,895.5 C 641.674,896.514 642.34,897.847 642.5,899.5C 600.833,940.5 559.5,981.833 518.5,1023.5C 516.833,1023.5 515.167,1023.5 513.5,1023.5C 555.833,980.833 598.167,938.167 640.5,895.5 Z"/></g>
<g><path style="opacity:0.022" fill="#43443f" d="M 299.5,897.5 C 300.609,897.557 301.609,897.89 302.5,898.5C 294.833,906.833 286.833,914.833 278.5,922.5C 278.94,919.62 279.94,916.954 281.5,914.5C 282.167,914.5 282.5,914.167 282.5,913.5C 288.167,908.167 293.833,902.833 299.5,897.5 Z"/></g>
<g><path style="opacity:0.022" fill="#44433f" d="M 313.5,902.5 C 314.71,902.932 315.71,903.599 316.5,904.5C 298.5,923.167 280.167,941.5 261.5,959.5C 262.108,956.673 263.108,954.007 264.5,951.5C 265.167,951.5 265.5,951.167 265.5,950.5C 281.833,934.833 297.833,918.833 313.5,902.5 Z"/></g>
<g><path style="opacity:0.022" fill="#43443f" d="M 618.5,902.5 C 578.5,942.833 538.5,983.167 498.5,1023.5C 496.833,1023.5 495.167,1023.5 493.5,1023.5C 532.5,984.167 571.5,944.833 610.5,905.5C 611.167,905.5 611.5,905.167 611.5,904.5C 613.746,903.545 616.079,902.878 618.5,902.5 Z"/></g>
<g><path style="opacity:0.022" fill="#44443f" d="M 192.5,904.5 C 191.439,907.622 190.105,910.622 188.5,913.5C 187.833,913.5 187.5,913.833 187.5,914.5C 150.833,950.5 114.5,986.833 78.5,1023.5C 76.8333,1023.5 75.1667,1023.5 73.5,1023.5C 112.833,983.5 152.5,943.833 192.5,904.5 Z"/></g>
<g><path style="opacity:0.022" fill="#44443f" d="M 327.5,908.5 C 328.959,908.433 330.292,908.766 331.5,909.5C 302.833,938.833 273.833,967.833 244.5,996.5C 245.454,993.294 246.787,990.294 248.5,987.5C 275.167,961.5 301.5,935.167 327.5,908.5 Z"/></g>
<g><path style="opacity:0.022" fill="#43443f" d="M 647.5,909.5 C 647.833,910.833 648.167,912.167 648.5,913.5C 611.5,949.833 574.833,986.5 538.5,1023.5C 536.833,1023.5 535.167,1023.5 533.5,1023.5C 571.167,985.167 609.167,947.167 647.5,909.5 Z"/></g>
<g><path style="opacity:0.022" fill="#43443f" d="M 588.5,912.5 C 551.833,949.5 515.167,986.5 478.5,1023.5C 476.833,1023.5 475.167,1023.5 473.5,1023.5C 509.167,987.5 544.833,951.5 580.5,915.5C 581.167,915.5 581.5,915.167 581.5,914.5C 583.833,913.833 586.167,913.167 588.5,912.5 Z"/></g>
<g><path style="opacity:0.022" fill="#43443f" d="M 343.5,913.5 C 344.791,913.263 345.791,913.596 346.5,914.5C 310.5,950.833 274.5,987.167 238.5,1023.5C 236.833,1023.5 235.167,1023.5 233.5,1023.5C 269.833,986.5 306.5,949.833 343.5,913.5 Z"/></g>
<g><path style="opacity:0.022" fill="#43443f" d="M 1023.5,913.5 C 1023.5,915.167 1023.5,916.833 1023.5,918.5C 988.167,953.167 953.167,988.167 918.5,1023.5C 916.833,1023.5 915.167,1023.5 913.5,1023.5C 949.833,986.5 986.5,949.833 1023.5,913.5 Z"/></g>
<g><path style="opacity:0.022" fill="#43443f" d="M 358.5,917.5 C 359.959,917.433 361.292,917.766 362.5,918.5C 327.833,953.5 293.167,988.5 258.5,1023.5C 256.833,1023.5 255.167,1023.5 253.5,1023.5C 288.5,988.167 323.5,952.833 358.5,917.5 Z"/></g>
<g><path style="opacity:0.793" fill="#ad6127" d="M 723.5,875.5 C 724.167,875.5 724.5,875.833 724.5,876.5C 726.167,879.833 727.833,883.167 729.5,886.5C 729.66,888.153 730.326,889.486 731.5,890.5C 732.836,893.838 734.169,897.171 735.5,900.5C 735.932,901.71 736.599,902.71 737.5,903.5C 738.382,907.593 740.049,911.26 742.5,914.5C 742.263,915.791 742.596,916.791 743.5,917.5C 744.93,921.354 746.597,925.021 748.5,928.5C 748.557,929.609 748.89,930.609 749.5,931.5C 751.181,934.907 752.847,938.241 754.5,941.5C 754.66,943.153 755.326,944.486 756.5,945.5C 757.282,949.063 758.616,952.397 760.5,955.5C 760.66,957.153 761.326,958.486 762.5,959.5C 763.836,962.838 765.169,966.171 766.5,969.5C 766.833,970.833 767.167,972.167 767.5,973.5C 767.5,978.5 767.5,983.5 767.5,988.5C 767.483,990.565 767.15,992.565 766.5,994.5C 765.449,999.607 763.115,1003.94 759.5,1007.5C 764.304,996.349 765.804,984.682 764,972.5C 749.894,940.304 736.394,907.97 723.5,875.5 Z"/></g>
<g><path style="opacity:0.022" fill="#444440" d="M 560.5,920.5 C 526.5,954.833 492.5,989.167 458.5,1023.5C 456.833,1023.5 455.167,1023.5 453.5,1023.5C 487.167,989.5 520.833,955.5 554.5,921.5C 556.379,920.659 558.379,920.325 560.5,920.5 Z"/></g>
<g><path style="opacity:0.022" fill="#43443f" d="M 374.5,921.5 C 376.099,921.232 377.432,921.566 378.5,922.5C 345.167,956.167 311.833,989.833 278.5,1023.5C 276.833,1023.5 275.167,1023.5 273.5,1023.5C 307.167,989.5 340.833,955.5 374.5,921.5 Z"/></g>
<g><path style="opacity:1" fill="#9e5123" d="M 712.5,849.5 C 714.181,852.907 715.847,856.241 717.5,859.5C 717.557,860.609 717.89,861.609 718.5,862.5C 719.797,866.083 721.463,869.416 723.5,872.5C 723.5,873.5 723.5,874.5 723.5,875.5C 736.394,907.97 749.894,940.304 764,972.5C 765.804,984.682 764.304,996.349 759.5,1007.5C 754.121,1015.02 747.121,1020.35 738.5,1023.5C 733.167,1023.5 727.833,1023.5 722.5,1023.5C 721.791,1022.6 720.791,1022.26 719.5,1022.5C 718.5,1021.83 717.5,1021.17 716.5,1020.5C 716.5,1020.17 716.5,1019.83 716.5,1019.5C 720.511,1019.5 724.178,1018.33 727.5,1016C 742.122,1003.69 747.289,988.186 743,969.5C 735.923,954.346 728.59,939.346 721,924.5C 715.552,919.18 709.052,917.013 701.5,918C 687.482,924.011 673.815,930.511 660.5,937.5C 660.167,937.5 659.833,937.5 659.5,937.5C 658.07,933.646 656.403,929.979 654.5,926.5C 654.443,925.391 654.11,924.391 653.5,923.5C 652.203,919.917 650.537,916.584 648.5,913.5C 648.167,912.167 647.833,910.833 647.5,909.5C 645.833,906.167 644.167,902.833 642.5,899.5C 642.34,897.847 641.674,896.514 640.5,895.5C 640.672,894.508 640.338,893.842 639.5,893.5C 639.281,892.325 639.614,891.325 640.5,890.5C 665.531,878.327 689.531,864.661 712.5,849.5 Z"/></g>
<g><path style="opacity:0.022" fill="#43443f" d="M 653.5,923.5 C 654.11,924.391 654.443,925.391 654.5,926.5C 622.5,958.833 590.5,991.167 558.5,1023.5C 556.833,1023.5 555.167,1023.5 553.5,1023.5C 586.5,989.833 619.833,956.5 653.5,923.5 Z"/></g>
<g><path style="opacity:0.022" fill="#43443f" d="M 391.5,924.5 C 392.959,924.433 394.292,924.766 395.5,925.5C 363.167,958.167 330.833,990.833 298.5,1023.5C 296.833,1023.5 295.167,1023.5 293.5,1023.5C 326.167,990.5 358.833,957.5 391.5,924.5 Z"/></g>
<g><path style="opacity:0.022" fill="#43443f" d="M 530.5,925.5 C 532.167,925.5 533.833,925.5 535.5,925.5C 503.167,958.167 470.833,990.833 438.5,1023.5C 436.833,1023.5 435.167,1023.5 433.5,1023.5C 465.5,991.167 497.5,958.833 529.5,926.5C 530.167,926.5 530.5,926.167 530.5,925.5 Z"/></g>
<g><path style="opacity:0.022" fill="#43443f" d="M 408.5,927.5 C 410.167,927.5 411.833,927.5 413.5,927.5C 381.833,959.5 350.167,991.5 318.5,1023.5C 316.833,1023.5 315.167,1023.5 313.5,1023.5C 345.167,991.5 376.833,959.5 408.5,927.5 Z"/></g>
<g><path style="opacity:0.022" fill="#43443f" d="M 507.5,928.5 C 509.167,928.5 510.833,928.5 512.5,928.5C 481.167,960.167 449.833,991.833 418.5,1023.5C 416.833,1023.5 415.167,1023.5 413.5,1023.5C 444.833,991.833 476.167,960.167 507.5,928.5 Z"/></g>
<g><path style="opacity:0.999" fill="#9e5123" d="M 217.5,849.5 C 228.995,857.478 240.661,865.311 252.5,873C 265.069,880.116 277.736,886.95 290.5,893.5C 287.833,900.167 285.167,906.833 282.5,913.5C 281.833,913.5 281.5,913.833 281.5,914.5C 279.94,916.954 278.94,919.62 278.5,922.5C 273.639,931.558 269.305,940.891 265.5,950.5C 264.833,950.5 264.5,950.833 264.5,951.5C 263.108,954.007 262.108,956.673 261.5,959.5C 256.639,968.558 252.305,977.891 248.5,987.5C 246.787,990.294 245.454,993.294 244.5,996.5C 239.167,1006.5 231.5,1014.17 221.5,1019.5C 219.079,1019.88 216.746,1020.54 214.5,1021.5C 213.833,1021.5 213.5,1021.83 213.5,1022.5C 211.901,1022.23 210.568,1022.57 209.5,1023.5C 203.167,1023.5 196.833,1023.5 190.5,1023.5C 187.572,1022.18 184.572,1020.85 181.5,1019.5C 180.609,1018.89 179.609,1018.56 178.5,1018.5C 175.859,1016.2 173.192,1013.86 170.5,1011.5C 170.573,1009.97 169.906,1008.97 168.5,1008.5C 166.895,1005.62 165.561,1002.62 164.5,999.5C 164.56,998.957 164.893,998.624 165.5,998.5C 168.802,1000.02 172.302,1000.69 176,1000.5C 194.257,1000.38 208.257,992.709 218,977.5C 226.941,958.619 235.607,939.619 244,920.5C 248.248,910.984 246.748,902.484 239.5,895C 228.656,886.647 218.322,877.814 208.5,868.5C 211.693,862.252 214.693,855.919 217.5,849.5 Z"/></g>
<g><path style="opacity:0.022" fill="#43443f" d="M 426.5,929.5 C 428.167,929.5 429.833,929.5 431.5,929.5C 400.5,960.833 369.5,992.167 338.5,1023.5C 336.833,1023.5 335.167,1023.5 333.5,1023.5C 364.5,992.167 395.5,960.833 426.5,929.5 Z"/></g>
<g><path style="opacity:0.022" fill="#43443f" d="M 445.5,930.5 C 447.167,930.5 448.833,930.5 450.5,930.5C 419.833,961.5 389.167,992.5 358.5,1023.5C 356.833,1023.5 355.167,1023.5 353.5,1023.5C 384.167,992.5 414.833,961.5 445.5,930.5 Z"/></g>
<g><path style="opacity:0.022" fill="#43443f" d="M 465.5,930.5 C 467.167,930.5 468.833,930.5 470.5,930.5C 439.833,961.5 409.167,992.5 378.5,1023.5C 376.833,1023.5 375.167,1023.5 373.5,1023.5C 404.167,992.5 434.833,961.5 465.5,930.5 Z"/></g>
<g><path style="opacity:0.022" fill="#43443f" d="M 485.5,930.5 C 487.167,930.5 488.833,930.5 490.5,930.5C 459.833,961.5 429.167,992.5 398.5,1023.5C 396.833,1023.5 395.167,1023.5 393.5,1023.5C 424.167,992.5 454.833,961.5 485.5,930.5 Z"/></g>
<g><path style="opacity:0.022" fill="#43443f" d="M 1023.5,933.5 C 1023.5,935.167 1023.5,936.833 1023.5,938.5C 994.833,966.5 966.5,994.833 938.5,1023.5C 936.833,1023.5 935.167,1023.5 933.5,1023.5C 963.167,993.167 993.167,963.167 1023.5,933.5 Z"/></g>
<g><path style="opacity:0.996" fill="#af6227" d="M 716.5,1019.5 C 712.725,1018.45 709.058,1017.11 705.5,1015.5C 704.71,1014.6 703.71,1013.93 702.5,1013.5C 700.14,1011.15 697.473,1009.15 694.5,1007.5C 694.573,1005.97 693.906,1004.97 692.5,1004.5C 690.252,1001.67 688.252,998.672 686.5,995.5C 686.068,994.29 685.401,993.29 684.5,992.5C 683.397,988.503 681.731,984.836 679.5,981.5C 679.443,980.391 679.11,979.391 678.5,978.5C 677.343,974.853 675.677,971.52 673.5,968.5C 673.567,967.041 673.234,965.708 672.5,964.5C 670.833,961.167 669.167,957.833 667.5,954.5C 667.34,952.847 666.674,951.514 665.5,950.5C 664.164,947.162 662.831,943.829 661.5,940.5C 660.89,939.609 660.557,938.609 660.5,937.5C 673.815,930.511 687.482,924.011 701.5,918C 709.052,917.013 715.552,919.18 721,924.5C 728.59,939.346 735.923,954.346 743,969.5C 747.289,988.186 742.122,1003.69 727.5,1016C 724.178,1018.33 720.511,1019.5 716.5,1019.5 Z"/></g>
<g><path style="opacity:0.022" fill="#43443f" d="M 659.5,937.5 C 659.833,937.5 660.167,937.5 660.5,937.5C 660.557,938.609 660.89,939.609 661.5,940.5C 633.5,967.833 605.833,995.5 578.5,1023.5C 576.833,1023.5 575.167,1023.5 573.5,1023.5C 601.833,994.5 630.5,965.833 659.5,937.5 Z"/></g>
<g><path style="opacity:0.022" fill="#44443f" d="M 175.5,941.5 C 174.499,944.172 173.499,946.838 172.5,949.5C 171.833,949.5 171.5,949.833 171.5,950.5C 146.833,974.5 122.5,998.833 98.5,1023.5C 96.8333,1023.5 95.1667,1023.5 93.5,1023.5C 120.5,995.833 147.833,968.5 175.5,941.5 Z"/></g>
<g><path style="opacity:0.022" fill="#43443f" d="M 665.5,950.5 C 666.674,951.514 667.34,952.847 667.5,954.5C 644.167,977.167 621.167,1000.17 598.5,1023.5C 596.833,1023.5 595.167,1023.5 593.5,1023.5C 617.5,999.167 641.5,974.833 665.5,950.5 Z"/></g>
<g><path style="opacity:0.022" fill="#43443f" d="M 1023.5,953.5 C 1023.5,955.167 1023.5,956.833 1023.5,958.5C 1001.5,979.833 979.833,1001.5 958.5,1023.5C 956.833,1023.5 955.167,1023.5 953.5,1023.5C 976.5,999.833 999.833,976.5 1023.5,953.5 Z"/></g>
<g><path style="opacity:0.022" fill="#44433f" d="M 672.5,964.5 C 673.234,965.708 673.567,967.041 673.5,968.5C 654.833,986.5 636.5,1004.83 618.5,1023.5C 616.833,1023.5 615.167,1023.5 613.5,1023.5C 632.833,1003.5 652.5,983.833 672.5,964.5 Z"/></g>
<g><path style="opacity:0.022" fill="#43443f" d="M 1023.5,973.5 C 1023.5,975.167 1023.5,976.833 1023.5,978.5C 1008.17,993.167 993.167,1008.17 978.5,1023.5C 976.833,1023.5 975.167,1023.5 973.5,1023.5C 989.833,1006.5 1006.5,989.833 1023.5,973.5 Z"/></g>
<g><path style="opacity:0.022" fill="#43443f" d="M 162.5,974.5 C 162.5,976.167 162.5,977.833 162.5,979.5C 161.833,979.5 161.5,979.833 161.5,980.5C 146.833,994.5 132.5,1008.83 118.5,1023.5C 116.833,1023.5 115.167,1023.5 113.5,1023.5C 129.5,1006.83 145.833,990.5 162.5,974.5 Z"/></g>
<g><path style="opacity:0.022" fill="#43443f" d="M 678.5,978.5 C 679.11,979.391 679.443,980.391 679.5,981.5C 665.833,995.5 652.167,1009.5 638.5,1023.5C 636.833,1023.5 635.167,1023.5 633.5,1023.5C 648.167,1008.17 663.167,993.167 678.5,978.5 Z"/></g>
<g><path style="opacity:0.022" fill="#43443f" d="M 684.5,992.5 C 685.401,993.29 686.068,994.29 686.5,995.5C 676.833,1004.5 667.5,1013.83 658.5,1023.5C 656.833,1023.5 655.167,1023.5 653.5,1023.5C 663.5,1012.83 673.833,1002.5 684.5,992.5 Z"/></g>
<g><path style="opacity:0.022" fill="#43443f" d="M 1023.5,993.5 C 1023.5,995.167 1023.5,996.833 1023.5,998.5C 1014.83,1006.5 1006.5,1014.83 998.5,1023.5C 996.833,1023.5 995.167,1023.5 993.5,1023.5C 1003.17,1013.17 1013.17,1003.17 1023.5,993.5 Z"/></g>
<g><path style="opacity:0.022" fill="#43443f" d="M 162.5,994.5 C 163.234,995.708 163.567,997.041 163.5,998.5C 154.833,1006.5 146.5,1014.83 138.5,1023.5C 136.833,1023.5 135.167,1023.5 133.5,1023.5C 142.833,1013.5 152.5,1003.83 162.5,994.5 Z"/></g>
<g><path style="opacity:0.022" fill="#44443f" d="M 692.5,1004.5 C 693.906,1004.97 694.573,1005.97 694.5,1007.5C 688.833,1012.5 683.5,1017.83 678.5,1023.5C 676.833,1023.5 675.167,1023.5 673.5,1023.5C 679.5,1016.83 685.833,1010.5 692.5,1004.5 Z"/></g>
<g><path style="opacity:0.022" fill="#44443f" d="M 168.5,1008.5 C 169.906,1008.97 170.573,1009.97 170.5,1011.5C 166.167,1015.17 162.167,1019.17 158.5,1023.5C 156.833,1023.5 155.167,1023.5 153.5,1023.5C 158.167,1018.17 163.167,1013.17 168.5,1008.5 Z"/></g>
<g><path style="opacity:0.022" fill="#43443f" d="M 702.5,1013.5 C 703.71,1013.93 704.71,1014.6 705.5,1015.5C 703.167,1018.17 700.833,1020.83 698.5,1023.5C 696.833,1023.5 695.167,1023.5 693.5,1023.5C 696.5,1020.17 699.5,1016.83 702.5,1013.5 Z"/></g>
<g><path style="opacity:0.022" fill="#43443f" d="M 1023.5,1013.5 C 1023.5,1015.17 1023.5,1016.83 1023.5,1018.5C 1021.5,1019.83 1019.83,1021.5 1018.5,1023.5C 1016.83,1023.5 1015.17,1023.5 1013.5,1023.5C 1016.5,1019.83 1019.83,1016.5 1023.5,1013.5 Z"/></g>
<g><path style="opacity:0.022" fill="#43443f" d="M 178.5,1018.5 C 179.609,1018.56 180.609,1018.89 181.5,1019.5C 180.5,1020.83 179.5,1022.17 178.5,1023.5C 176.833,1023.5 175.167,1023.5 173.5,1023.5C 174.833,1021.5 176.5,1019.83 178.5,1018.5 Z"/></g>
<g><path style="opacity:0.022" fill="#46433f" d="M 221.5,1019.5 C 220.5,1020.83 219.5,1022.17 218.5,1023.5C 216.833,1023.5 215.167,1023.5 213.5,1023.5C 213.5,1023.17 213.5,1022.83 213.5,1022.5C 214.167,1022.5 214.5,1022.17 214.5,1021.5C 216.746,1020.54 219.079,1019.88 221.5,1019.5 Z"/></g>
<g><path style="opacity:0.022" fill="#49423e" d="M 716.5,1020.5 C 717.5,1021.17 718.5,1021.83 719.5,1022.5C 718.833,1022.5 718.5,1022.83 718.5,1023.5C 716.833,1023.5 715.167,1023.5 713.5,1023.5C 714.167,1022.17 715.167,1021.17 716.5,1020.5 Z"/></g>
</svg>
